<svg width="18" height="18" fill="none" xmlns="http://www.w3.org/2000/svg"><g clip-path="url(#a)" fill="#fff"><path d="M12.607 9.75H3.562A.563.563 0 0 1 3 9.187V5.813a.563.563 0 0 1 .562-.563h10.875a.563.563 0 0 1 .563.563V7.5a.563.563 0 0 1-1.125 0V6.375h-9.75v2.25h8.482a.562.562 0 1 1 0 1.125Zm-2.243 2.242H3.6a.563.563 0 0 1 0-1.125h6.765a.563.563 0 0 1 0 1.125Zm-2.234 2.25H3.6a.563.563 0 0 1 0-1.125h4.53a.563.563 0 0 1 0 1.125ZM9.396 18a.564.564 0 0 1-.553-.661l.4-2.254a.57.57 0 0 1 .156-.3l5.57-5.568c.2-.216.46-.369.746-.439a1.043 1.043 0 0 1 .977.307l.928.928a1.315 1.315 0 0 1 0 1.856l-5.568 5.569a.56.56 0 0 1-.3.156l-2.254.4a.62.62 0 0 1-.1.008L9.396 18Zm.921-2.544-.227 1.288 1.288-.227 5.443-5.443a.19.19 0 0 0 0-.266l-.92-.921c-.008.014-.065.05-.14.125l-5.444 5.444Z"/><path d="M7.372 16.5h-5.31A2.064 2.064 0 0 1 0 14.437V2.062A2.064 2.064 0 0 1 2.062 0h13.875A2.064 2.064 0 0 1 18 2.062V7.53a.563.563 0 0 1-1.125 0V2.062a.939.939 0 0 0-.938-.937H2.062a.939.939 0 0 0-.937.938v12.374a.939.939 0 0 0 .938.937h5.31a.563.563 0 0 1 0 1.125l-.001.001Z"/><path d="M17.437 3.75H.562a.563.563 0 0 1 0-1.125h16.875a.563.563 0 0 1 0 1.125Z"/></g><defs><clipPath id="a"><path fill="#fff" d="M0 0h18v18H0z"/></clipPath></defs></svg>