<svg width="18" height="18" viewBox="0 0 18 18" fill="none" xmlns="http://www.w3.org/2000/svg">
<g clip-path="url(#clip0_133_112)">
<path d="M12.607 9.75H3.562C3.41286 9.74973 3.26991 9.6903 3.16455 9.58475C3.05918 9.47919 3 9.33614 3 9.187V5.813C3 5.66386 3.05918 5.52081 3.16455 5.41525C3.26991 5.3097 3.41286 5.25026 3.562 5.25H14.437C14.5863 5.25 14.7295 5.30932 14.8351 5.4149C14.9407 5.52048 15 5.66368 15 5.813V7.5C14.9939 7.64508 14.9319 7.78219 14.8271 7.88268C14.7223 7.98317 14.5827 8.03928 14.4375 8.03928C14.2923 8.03928 14.1527 7.98317 14.0479 7.88268C13.9431 7.78219 13.8811 7.64508 13.875 7.5V6.375H4.125V8.625H12.607C12.7562 8.625 12.8993 8.68426 13.0047 8.78975C13.1102 8.89524 13.1695 9.03832 13.1695 9.1875C13.1695 9.33668 13.1102 9.47976 13.0047 9.58525C12.8993 9.69074 12.7562 9.75 12.607 9.75Z" fill="white"/>
<path d="M10.3641 11.992H3.59909C3.45401 11.9859 3.3169 11.9239 3.21641 11.8191C3.11592 11.7143 3.05981 11.5747 3.05981 11.4295C3.05981 11.2843 3.11592 11.1447 3.21641 11.0399C3.3169 10.9351 3.45401 10.8731 3.59909 10.867H10.3641C10.5092 10.8731 10.6463 10.9351 10.7468 11.0399C10.8473 11.1447 10.9034 11.2843 10.9034 11.4295C10.9034 11.5747 10.8473 11.7143 10.7468 11.8191C10.6463 11.9239 10.5092 11.9859 10.3641 11.992Z" fill="white"/>
<path d="M8.12907 14.242H3.60007C3.45499 14.2359 3.31788 14.1739 3.21739 14.0691C3.1169 13.9643 3.06079 13.8247 3.06079 13.6795C3.06079 13.5343 3.1169 13.3947 3.21739 13.2899C3.31788 13.1851 3.45499 13.1231 3.60007 13.117H8.13007C8.27515 13.1231 8.41226 13.1851 8.51275 13.2899C8.61324 13.3947 8.66935 13.5343 8.66935 13.6795C8.66935 13.8247 8.61324 13.9643 8.51275 14.0691C8.41226 14.1739 8.27415 14.2359 8.12907 14.242Z" fill="white"/>
<path d="M9.39607 18C9.31396 17.9998 9.23288 17.9816 9.15853 17.9468C9.08418 17.9119 9.01835 17.8612 8.96566 17.7983C8.91297 17.7353 8.8747 17.6615 8.85352 17.5822C8.83234 17.5029 8.82877 17.4199 8.84307 17.339L9.24307 15.085C9.26353 14.9715 9.31792 14.8669 9.39907 14.785L14.9681 9.21701C15.1688 9.00075 15.4285 8.84811 15.7151 8.77801C15.8906 8.74083 16.0727 8.74956 16.2438 8.80334C16.415 8.85712 16.5694 8.95413 16.6921 9.08501L17.6201 10.013C17.8656 10.2595 18.0034 10.5931 18.0034 10.941C18.0034 11.2889 17.8656 11.6225 17.6201 11.869L12.0521 17.438C11.9706 17.5197 11.8658 17.5742 11.7521 17.594L9.49807 17.994C9.46501 17.9994 9.43156 18.002 9.39807 18.002L9.39607 18ZM10.3171 15.456L10.0901 16.744L11.3781 16.517L16.8211 11.074C16.8561 11.0386 16.8758 10.9908 16.8758 10.941C16.8758 10.8912 16.8561 10.8434 16.8211 10.808L15.9001 9.88701C15.8931 9.90101 15.8361 9.93701 15.7611 10.012L10.3171 15.456Z" fill="white"/>
<path d="M7.372 16.5H2.062C1.51511 16.4995 0.990792 16.2819 0.604178 15.8951C0.217564 15.5083 0.000264708 14.9839 0 14.437L0 2.062C0.000529505 1.51529 0.217945 0.991116 0.604531 0.604531C0.991116 0.217945 1.51529 0.000529505 2.062 0L15.937 0C16.4839 0.000264708 17.0083 0.217564 17.3951 0.604178C17.7819 0.990792 17.9995 1.51511 18 2.062V7.53C18 7.67918 17.9407 7.82226 17.8352 7.92775C17.7298 8.03324 17.5867 8.0925 17.4375 8.0925C17.2883 8.0925 17.1452 8.03324 17.0398 7.92775C16.9343 7.82226 16.875 7.67918 16.875 7.53V2.062C16.8745 1.81348 16.7754 1.57531 16.5996 1.39967C16.4238 1.22404 16.1855 1.12526 15.937 1.125H2.062C1.81348 1.12553 1.57531 1.22456 1.39967 1.40038C1.22404 1.5762 1.12526 1.81448 1.125 2.063V14.437C1.12553 14.6855 1.22456 14.9237 1.40038 15.0993C1.5762 15.275 1.81448 15.3737 2.063 15.374H7.373C7.51808 15.3801 7.65519 15.4421 7.75568 15.5469C7.85617 15.6517 7.91228 15.7913 7.91228 15.9365C7.91228 16.0817 7.85617 16.2213 7.75568 16.3261C7.65519 16.4309 7.51808 16.4929 7.373 16.499L7.372 16.5Z" fill="white"/>
<path d="M17.437 3.75H0.561983C0.416902 3.74388 0.279796 3.68194 0.179303 3.57712C0.0788111 3.4723 0.0227051 3.33271 0.0227051 3.1875C0.0227051 3.04229 0.0788111 2.9027 0.179303 2.79788C0.279796 2.69306 0.416902 2.63112 0.561983 2.625H17.437C17.5821 2.63112 17.7192 2.69306 17.8197 2.79788C17.9202 2.9027 17.9763 3.04229 17.9763 3.1875C17.9763 3.33271 17.9202 3.4723 17.8197 3.57712C17.7192 3.68194 17.5821 3.74388 17.437 3.75Z" fill="white"/>
</g>
<defs>
<clipPath id="clip0_133_112">
<rect width="18" height="18" fill="white"/>
</clipPath>
</defs>
</svg>
