<svg width="25" height="20" fill="none" xmlns="http://www.w3.org/2000/svg"><path d="M11.576 10.001h1.848c.27 0 .519.107.696.283a.95.95 0 0 1 .288.68v3.808a.95.95 0 0 1-.288.68.992.992 0 0 1-.696.283h-1.848a.992.992 0 0 1-.696-.283.95.95 0 0 1-.288-.68v-3.806c0-.265.11-.507.288-.68a.994.994 0 0 1 .696-.285ZM1.418 2.777h6.409V.983c0-.27.112-.515.295-.695.18-.179.433-.288.71-.288h7.336c.277 0 .527.11.71.288a.972.972 0 0 1 .295.695v1.796h6.409c.39 0 .745.155 1.003.408.256.25.417.599.417.98v14.448c0 .382-.159.729-.417.981-.256.25-.612.408-1.003.408H1.418a1.43 1.43 0 0 1-1.003-.408A1.381 1.381 0 0 1 0 18.613V4.166c0-.382.159-.728.417-.98a1.43 1.43 0 0 1 1.001-.409ZM16.168.861H8.832a.124.124 0 0 0-.124.122v1.776h7.584V.983a.119.119 0 0 0-.036-.086.117.117 0 0 0-.088-.036ZM.878 11.067c3.242.912 5.639 1.303 8.882 1.45v.862c-3.241-.145-5.638-.527-8.881-1.42v6.652a.52.52 0 0 0 .159.372.543.543 0 0 0 .38.156H23.58a.54.54 0 0 0 .38-.156.52.52 0 0 0 .16-.372v-6.65c-3.238.89-5.49 1.273-8.725 1.418v-.861c3.237-.15 5.49-.542 8.724-1.45V4.165a.52.52 0 0 0-.159-.372.543.543 0 0 0-.38-.155H1.418a.543.543 0 0 0-.38.155.52.52 0 0 0-.16.372v6.901Zm12.546-.205h-1.848a.106.106 0 0 0-.073.03.101.101 0 0 0-.03.072v3.808a.1.1 0 0 0 .03.071c.018.02.045.03.073.03h1.848a.106.106 0 0 0 .073-.03.101.101 0 0 0 .03-.071v-3.806a.101.101 0 0 0-.03-.072.1.1 0 0 0-.073-.032Z" fill="#2D2E33"/></svg>