<svg width="17" height="14" viewBox="0 0 17 14" fill="none" xmlns="http://www.w3.org/2000/svg">
<path d="M1.7 1H15.3C15.6556 1 16 1.31226 16 1.75V12.25C16 12.6877 15.6556 13 15.3 13H1.7C1.34441 13 1 12.6877 1 12.25V1.75C1 1.31226 1.34441 1 1.7 1Z" stroke="white" stroke-width="2" stroke-linecap="round" stroke-linejoin="round"/>
<mask id="path-2-inside-1_133_237" fill="white">
<path d="M17 1.75L8.5 7.875L0 1.75"/>
</mask>
<path d="M18.1692 3.37262C19.0654 2.72686 19.2684 1.47691 18.6226 0.580762C17.9769 -0.315384 16.7269 -0.518368 15.8308 0.127384L18.1692 3.37262ZM8.5 7.875L7.33076 9.49762C8.02905 10.0008 8.97095 10.0008 9.66924 9.49762L8.5 7.875ZM1.16924 0.127384C0.273092 -0.518368 -0.976864 -0.315384 -1.62262 0.580762C-2.26837 1.47691 -2.06538 2.72686 -1.16924 3.37262L1.16924 0.127384ZM15.8308 0.127384L7.33076 6.25238L9.66924 9.49762L18.1692 3.37262L15.8308 0.127384ZM9.66924 6.25238L1.16924 0.127384L-1.16924 3.37262L7.33076 9.49762L9.66924 6.25238Z" fill="white" mask="url(#path-2-inside-1_133_237)"/>
</svg>
