<svg width="17" height="14" fill="none" xmlns="http://www.w3.org/2000/svg"><path d="M1.7 1h13.6c.356 0 .7.312.7.75v10.5c0 .438-.344.75-.7.75H1.7c-.356 0-.7-.312-.7-.75V1.75c0-.438.344-.75.7-.75Z" stroke="#fff" stroke-width="2" stroke-linecap="round" stroke-linejoin="round"/><mask id="a" fill="#fff"><path d="M17 1.75 8.5 7.875 0 1.75"/></mask><path d="M18.17 3.373A2 2 0 1 0 15.83.127l2.34 3.246ZM8.5 7.875 7.33 9.498a2 2 0 0 0 2.34 0L8.5 7.875ZM1.17.127a2 2 0 0 0-2.34 3.246L1.17.127Zm14.66 0-8.5 6.125 2.34 3.246 8.5-6.125L15.83.127ZM9.67 6.252 1.17.127l-2.34 3.246 8.5 6.125 2.34-3.246Z" fill="#fff" mask="url(#a)"/></svg>