<svg width="18" height="18" fill="none" xmlns="http://www.w3.org/2000/svg"><path d="M9.925 7.001 7.173 4.925v8.141l2.752-2.067 2.662-2-2.662-1.998Zm0 0L7.173 4.925v8.141l2.752-2.067 2.662-2-2.662-1.998Zm0 0L7.173 4.925v8.141l2.752-2.067 2.662-2-2.662-1.998Zm-1.85-5.176V0a8.965 8.965 0 0 0-4.8 2l1.281 1.292a7.155 7.155 0 0 1 3.519-1.467ZM3.284 4.568l-1.29-1.285A9.011 9.011 0 0 0 0 8.095h1.825a7.193 7.193 0 0 1 1.459-3.527ZM1.825 9.905H0a9.011 9.011 0 0 0 1.994 4.812l1.29-1.292a7.126 7.126 0 0 1-1.459-3.52Zm1.453 6.1a8.994 8.994 0 0 0 4.8 2v-1.832a7.154 7.154 0 0 1-3.519-1.465l-1.284 1.293.003.004Zm14.725-7a9.05 9.05 0 0 1-8.075 9v-1.832a7.238 7.238 0 0 0-.003-14.348V0A9.05 9.05 0 0 1 18 9l.003.005Z" fill="#fff"/></svg>