<svg width="11" height="19" fill="none" xmlns="http://www.w3.org/2000/svg"><path d="M10.999 8.413a.54.54 0 1 0-1.082 0 4.42 4.42 0 0 1-8.835 0 .541.541 0 1 0-1.082 0 5.42 5.42 0 0 0 4.959 5.333v1.089h-.546a2.684 2.684 0 0 0-2.715 2.646.534.534 0 0 0 .541.527h6.522a.532.532 0 0 0 .541-.527 2.684 2.684 0 0 0-2.715-2.646h-.546v-1.09a5.42 5.42 0 0 0 4.958-5.332Zm-2.872 8.54H2.872a1.633 1.633 0 0 1 1.541-1.063h2.174a1.633 1.633 0 0 1 1.541 1.062h-.001Z" fill="#fff"/><path d="M5.496 11.653a3.252 3.252 0 0 0 3.316-3.175v-5.3a3.319 3.319 0 0 0-6.632 0v5.3a3.252 3.252 0 0 0 3.316 3.175Zm0-10.591a2.172 2.172 0 0 1 2.215 2.12h-.594a.528.528 0 1 0 0 1.055h.594v1.07h-.594a.528.528 0 1 0 0 1.055h.594V7.42h-.594a.528.528 0 1 0 0 1.055h.594a2.217 2.217 0 0 1-4.43 0h.595a.528.528 0 1 0 0-1.055h-.594V6.357h.594a.528.528 0 1 0 0-1.055h-.594V4.239h.594a.528.528 0 1 0 0-1.055h-.594a2.172 2.172 0 0 1 2.214-2.122Z" fill="#fff"/></svg>