<svg width="11" height="19" viewBox="0 0 11 19" fill="none" xmlns="http://www.w3.org/2000/svg">
<path d="M10.999 8.41295C10.999 8.26947 10.942 8.13185 10.8405 8.0304C10.7391 7.92894 10.6015 7.87195 10.458 7.87195C10.3145 7.87195 10.1769 7.92894 10.0755 8.0304C9.974 8.13185 9.917 8.26947 9.917 8.41295C9.88698 9.56461 9.40841 10.659 8.58324 11.463C7.75807 12.2669 6.65156 12.7168 5.4995 12.7168C4.34745 12.7168 3.24094 12.2669 2.41577 11.463C1.5906 10.659 1.11202 9.56461 1.082 8.41295C1.082 8.26947 1.025 8.13185 0.923546 8.0304C0.822089 7.92894 0.684482 7.87195 0.541 7.87195C0.397518 7.87195 0.259912 7.92894 0.158455 8.0304C0.0569977 8.13185 0 8.26947 0 8.41295C0.0169626 9.75889 0.534059 11.0504 1.45067 12.0361C2.36728 13.0219 3.61784 13.6313 4.959 13.7459V14.8349H4.413C3.70234 14.8267 3.01742 15.1006 2.50845 15.5966C1.99947 16.0927 1.70801 16.7703 1.698 17.4809C1.69891 17.5511 1.71363 17.6203 1.74132 17.6848C1.769 17.7492 1.80911 17.8076 1.85934 17.8565C1.90958 17.9054 1.96897 17.944 2.03411 17.97C2.09925 17.996 2.16887 18.0089 2.239 18.0079H8.761C8.83113 18.0089 8.90075 17.996 8.9659 17.97C9.03104 17.944 9.09043 17.9054 9.14066 17.8565C9.1909 17.8076 9.23101 17.7492 9.25869 17.6848C9.28637 17.6203 9.30109 17.5511 9.302 17.4809C9.29199 16.7703 9.00053 16.0927 8.49156 15.5966C7.98259 15.1006 7.29766 14.8267 6.587 14.8349H6.041V13.7459C7.38198 13.6311 8.6323 13.0215 9.54871 12.0358C10.4651 11.0501 10.9821 9.75874 10.999 8.41295ZM8.127 16.9529H2.872C2.98888 16.6391 3.1994 16.3688 3.47505 16.1787C3.7507 15.9886 4.07814 15.8877 4.413 15.8899H6.587C6.92174 15.8877 7.24909 15.9883 7.52473 16.1783C7.80036 16.3682 8.01096 16.6383 8.128 16.952L8.127 16.9529Z" fill="white"/>
<path d="M5.49593 11.6529C6.35625 11.6701 7.18831 11.3456 7.80984 10.7505C8.43138 10.1554 8.79172 9.33818 8.81192 8.47791V3.17791C8.77554 2.32286 8.41028 1.51491 7.79239 0.922751C7.1745 0.330591 6.35175 0 5.49593 0C4.6401 0 3.81735 0.330591 3.19946 0.922751C2.58157 1.51491 2.21631 2.32286 2.17993 3.17791V8.47791C2.20013 9.33818 2.56047 10.1554 3.18201 10.7505C3.80354 11.3456 4.6356 11.6701 5.49593 11.6529ZM5.49593 1.06191C6.07048 1.05038 6.62619 1.26701 7.04135 1.66436C7.45651 2.06172 7.69728 2.6074 7.71092 3.18191H7.11693C7.04572 3.17881 6.97463 3.19016 6.90793 3.21527C6.84123 3.24038 6.78029 3.27874 6.72881 3.32803C6.67732 3.37732 6.63636 3.43652 6.60837 3.50206C6.58038 3.56761 6.56595 3.63814 6.56595 3.70941C6.56595 3.78069 6.58038 3.85122 6.60837 3.91677C6.63636 3.98231 6.67732 4.04151 6.72881 4.0908C6.78029 4.14009 6.84123 4.17845 6.90793 4.20356C6.97463 4.22867 7.04572 4.24002 7.11693 4.23692H7.71092V5.30692H7.11693C7.04572 5.30381 6.97463 5.31516 6.90793 5.34027C6.84123 5.36538 6.78029 5.40374 6.72881 5.45303C6.67732 5.50232 6.63636 5.56152 6.60837 5.62706C6.58038 5.69261 6.56595 5.76314 6.56595 5.83441C6.56595 5.90569 6.58038 5.97622 6.60837 6.04177C6.63636 6.10731 6.67732 6.16651 6.72881 6.2158C6.78029 6.26509 6.84123 6.30345 6.90793 6.32856C6.97463 6.35367 7.04572 6.36502 7.11693 6.36192H7.71092V7.42092H7.11693C7.04572 7.41781 6.97463 7.42916 6.90793 7.45427C6.84123 7.47938 6.78029 7.51774 6.72881 7.56703C6.67732 7.61632 6.63636 7.67552 6.60837 7.74106C6.58038 7.80661 6.56595 7.87714 6.56595 7.94842C6.56595 8.01969 6.58038 8.09022 6.60837 8.15577C6.63636 8.22131 6.67732 8.28051 6.72881 8.3298C6.78029 8.37909 6.84123 8.41745 6.90793 8.44256C6.97463 8.46767 7.04572 8.47902 7.11693 8.47591H7.71092C7.68387 9.04504 7.43875 9.58189 7.02641 9.9751C6.61408 10.3683 6.06619 10.5877 5.49643 10.5877C4.92667 10.5877 4.37877 10.3683 3.96643 9.9751C3.55409 9.58189 3.30897 9.04504 3.28192 8.47591H3.87593C3.94714 8.47902 4.01823 8.46767 4.08493 8.44256C4.15163 8.41745 4.21256 8.37909 4.26404 8.3298C4.31552 8.28051 4.35649 8.22131 4.38448 8.15577C4.41247 8.09022 4.4269 8.01969 4.4269 7.94842C4.4269 7.87714 4.41247 7.80661 4.38448 7.74106C4.35649 7.67552 4.31552 7.61632 4.26404 7.56703C4.21256 7.51774 4.15163 7.47938 4.08493 7.45427C4.01823 7.42916 3.94714 7.41781 3.87593 7.42092H3.28192V6.35691H3.87593C3.94714 6.36002 4.01823 6.34867 4.08493 6.32356C4.15163 6.29845 4.21256 6.26009 4.26404 6.2108C4.31552 6.16151 4.35649 6.10231 4.38448 6.03677C4.41247 5.97122 4.4269 5.90069 4.4269 5.82942C4.4269 5.75814 4.41247 5.68761 4.38448 5.62206C4.35649 5.55652 4.31552 5.49732 4.26404 5.44803C4.21256 5.39874 4.15163 5.36038 4.08493 5.33527C4.01823 5.31016 3.94714 5.29881 3.87593 5.30192H3.28192V4.23891H3.87593C3.94714 4.24202 4.01823 4.23067 4.08493 4.20556C4.15163 4.18045 4.21256 4.14209 4.26404 4.0928C4.31552 4.04351 4.35649 3.98431 4.38448 3.91877C4.41247 3.85322 4.4269 3.78269 4.4269 3.71141C4.4269 3.64014 4.41247 3.56961 4.38448 3.50406C4.35649 3.43852 4.31552 3.37932 4.26404 3.33003C4.21256 3.28074 4.15163 3.24238 4.08493 3.21727C4.01823 3.19216 3.94714 3.18081 3.87593 3.18391H3.28192C3.29504 2.60923 3.53545 2.06318 3.95045 1.66543C4.36545 1.26767 4.9212 1.05065 5.49593 1.06191Z" fill="white"/>
</svg>
