<svg width="19" height="19" fill="none" xmlns="http://www.w3.org/2000/svg"><path d="M11.53 4.25a4.072 4.072 0 0 1 3.215 3.208M11.53 1a7.33 7.33 0 0 1 4.367 2.093A7.306 7.306 0 0 1 18 7.45m-.814 6.482v2.437a1.62 1.62 0 0 1-1.106 1.545 1.63 1.63 0 0 1-.668.08A16.125 16.125 0 0 1 8.388 15.5a15.854 15.854 0 0 1-4.883-4.874 16.055 16.055 0 0 1-2.498-7.043 1.622 1.622 0 0 1 .963-1.632 1.63 1.63 0 0 1 .656-.139h2.442A1.63 1.63 0 0 1 6.695 3.21a10.5 10.5 0 0 0 .57 2.283A1.622 1.622 0 0 1 6.9 7.206L5.865 8.238a13.01 13.01 0 0 0 4.883 4.873l1.034-1.031a1.63 1.63 0 0 1 1.717-.366 10.49 10.49 0 0 0 2.287.569 1.629 1.629 0 0 1 1.4 1.649Z" stroke="#fff" stroke-width="2" stroke-linecap="round" stroke-linejoin="round"/></svg>