<svg width="20" height="20" fill="none" xmlns="http://www.w3.org/2000/svg"><path d="M5 8a.5.5 0 0 0 .312-.11l3.355-2.683v9.586L5.312 12.11A.5.5 0 0 0 5 12H2.167V8H5Z" stroke="#050835" stroke-linecap="round" stroke-linejoin="round"/><mask id="a" fill="#fff"><path d="M15.892 4.108a8.333 8.333 0 0 1 0 11.784M12.95 7.05a4.167 4.167 0 0 1 0 5.892"/></mask><path d="M16.599 3.401a1 1 0 1 0-1.415 1.414L16.6 3.401Zm-1.415 11.784a1 1 0 1 0 1.415 1.414l-1.415-1.414Zm-1.527-8.842a1 1 0 0 0-1.414 1.414l1.414-1.414Zm-1.414 5.892a1 1 0 0 0 1.414 1.414l-1.414-1.414Zm2.941-7.42A7.333 7.333 0 0 1 17.331 10h2A9.333 9.333 0 0 0 16.6 3.401l-1.415 1.414ZM17.331 10c0 1.945-.772 3.81-2.147 5.185l1.415 1.414A9.333 9.333 0 0 0 19.33 10h-2Zm-5.088-2.243c.593.594.927 1.4.927 2.239h2c0-1.37-.544-2.684-1.513-3.653l-1.414 1.414Zm.927 2.239a3.17 3.17 0 0 1-.927 2.239l1.414 1.414a5.167 5.167 0 0 0 1.513-3.653h-2Z" fill="#050835" mask="url(#a)"/></svg>