<svg width="31" height="31" fill="none" xmlns="http://www.w3.org/2000/svg"><g clip-path="url(#a)"><path d="M29.144 24.962A9.408 9.408 0 0 0 31 19.352a9.783 9.783 0 0 0-4.531-8.144 11.738 11.738 0 0 0-3.873-7.645A13.685 13.685 0 0 0 13.264 0a13.804 13.804 0 0 0-9.342 3.543A11.725 11.725 0 0 0 0 12.236c0 2.525.828 4.98 2.365 6.977L.09 24.852c-.25.619.05 1.327.669 1.577.299.12.648.12.948-.01l6.497-2.865c.819.31 1.657.55 2.515.7a10.35 10.35 0 0 0 3.663 3.562 11.41 11.41 0 0 0 5.7 1.547h.089c1.377 0 2.745-.24 4.042-.718l5.1 2.245a1.206 1.206 0 0 0 1.607-1.557l-1.766-4.371h-.01Zm-2.506.26.919 2.265-2.835-1.248a1.17 1.17 0 0 0-.968 0 9.17 9.17 0 0 1-3.533.729h-.05a8.906 8.906 0 0 1-6.218-2.485 14.014 14.014 0 0 0 5.699-1.498 1.2 1.2 0 0 0 .529-1.626 1.202 1.202 0 0 0-1.627-.53 11.875 11.875 0 0 1-9.9.32c-.31-.13-.66-.13-.969 0l-4.232 1.866 1.428-3.523c.17-.419.09-.898-.2-1.237a9.16 9.16 0 0 1-2.256-5.989c0-5.44 4.86-9.84 10.84-9.84 5.978 0 10.838 4.4 10.838 9.82a9.035 9.035 0 0 1-1.487 4.96 1.212 1.212 0 1 0 2.036 1.317 11.506 11.506 0 0 0 1.707-4.32 7.187 7.187 0 0 1 2.226 5.15 7.012 7.012 0 0 1-1.747 4.63c-.29.34-.37.819-.2 1.238Zm-12.226-6.748c0 .669-.539 1.208-1.208 1.208a1.205 1.205 0 0 1-1.207-1.208c0-.668.539-1.207 1.207-1.207.67 0 1.208.539 1.208 1.207Zm3.393-9.072v.05a4.545 4.545 0 0 1-2.764 4.182.96.96 0 0 0-.569.888v.08c0 .668-.539 1.207-1.208 1.207a1.205 1.205 0 0 1-1.207-1.207v-.08a3.37 3.37 0 0 1 2.046-3.114 2.116 2.116 0 0 0 1.287-1.916v-.03a2.117 2.117 0 0 0-4.232 0c0 .668-.539 1.207-1.207 1.207a1.205 1.205 0 0 1-1.208-1.207 4.551 4.551 0 0 1 4.511-4.571 4.551 4.551 0 0 1 4.572 4.51h-.02Z" fill="#fff"/></g><defs><clipPath id="a"><path fill="#fff" d="M0 0h31v31H0z"/></clipPath></defs></svg>