<svg width="30" height="30" fill="none" xmlns="http://www.w3.org/2000/svg"><path d="m16.541 11.666-4.586-3.452v13.568l4.586-3.452 4.436-3.332-4.436-3.332Zm0 0-4.586-3.452v13.568l4.586-3.452 4.436-3.332-4.436-3.332Zm0 0-4.586-3.452v13.568l4.586-3.452 4.436-3.332-4.436-3.332ZM13.46 3.045V0a14.94 14.94 0 0 0-8 3.332l2.135 2.155a11.926 11.926 0 0 1 5.865-2.442ZM5.473 7.613l-2.15-2.14A15.018 15.018 0 0 0 0 13.492h3.036a11.987 11.987 0 0 1 2.437-5.88Zm-2.437 8.894H0a15.018 15.018 0 0 0 3.324 8.02l2.15-2.155a11.876 11.876 0 0 1-2.438-5.865Zm2.422 10.161a14.99 14.99 0 0 0 8 3.332v-3.045a11.925 11.925 0 0 1-5.864-2.443l-2.136 2.156ZM30 15a15.085 15.085 0 0 1-13.459 15v-3.045a12.062 12.062 0 0 0 0-23.91V0A15.084 15.084 0 0 1 30 15Z" fill="#2D2E33"/></svg>