<svg width="33" height="18" fill="none" xmlns="http://www.w3.org/2000/svg"><path d="M20.454 2h3.955a6.25 6.25 0 0 1 2.522.533A6.58 6.58 0 0 1 29.07 4.05a7.044 7.044 0 0 1 1.428 2.271C30.83 7.171 31 8.081 31 9c0 .92-.17 1.83-.502 2.679a7.043 7.043 0 0 1-1.428 2.27 6.58 6.58 0 0 1-2.139 1.518A6.26 6.26 0 0 1 24.41 16h-3.954m-7.91 0H8.591a6.26 6.26 0 0 1-2.522-.533A6.579 6.579 0 0 1 3.93 13.95C2.694 12.637 2 10.857 2 9c0-1.857.694-3.637 1.93-4.95C5.166 2.737 6.843 2 8.59 2h3.956m-1.319 7h10.546" stroke="#2D2E33" stroke-width="3" stroke-linecap="round" stroke-linejoin="round"/></svg>