<svg width="34" height="32" fill="none" xmlns="http://www.w3.org/2000/svg"><path d="M9.092 20.359a.66.66 0 1 0-.658-1.145.66.66 0 0 0 .658 1.145Z" fill="#fff"/><path d="m6.34 24.921 3.326 5.761a2.642 2.642 0 1 0 4.576-2.642l-1.982-3.436 1.716-.991a.66.66 0 0 0 .242-.9l-.859-1.492 12.651-2.479a1.98 1.98 0 0 0 1.606-2.969l-2.2-3.8 1.4-2.125a.66.66 0 0 0 .021-.694l-1.321-2.288a.662.662 0 0 0-.612-.329l-2.541.152-2.437-4.221a1.963 1.963 0 0 0-1.691-.99h-.025a1.964 1.964 0 0 0-1.668.914l-8.621 10.99-5.609 3.239a4.623 4.623 0 0 0 4.028 8.3Zm6.76 3.777a1.322 1.322 0 1 1-2.29 1.323L7.51 24.3l2.29-1.323 3.3 5.721Zm-1.5-5.237-.66-1.144 1.144-.66.66 1.144-1.144.66ZM24.584 7.879l.913 1.581-.814 1.233-1.573-2.726 1.474-.088Zm-6.93-4.764a.66.66 0 0 1 1.136.013l7.682 13.307a.66.66 0 0 1-.556.99 2.439 2.439 0 0 0-.362.061L17.428 3.41c.172-.219.193-.239.226-.295Zm-1.105 1.416 7.635 13.224-11.523 2.26-3.5-6.069 7.388-9.415ZM1.764 22.275a3.3 3.3 0 0 1 1.209-4.511l5.148-2.972 3.3 5.72-5.146 2.972a3.306 3.306 0 0 1-4.511-1.209Z" fill="#fff"/><path d="M7 20.774a.66.66 0 0 0-.9-.242l-1.144.66a.661.661 0 0 1-.9-.242.66.66 0 1 0-1.144.661 1.984 1.984 0 0 0 2.707.725l1.144-.66A.661.661 0 0 0 7 20.774ZM33.019 2.89l-3.68 2.048a.66.66 0 0 0 .642 1.154l3.68-2.048a.66.66 0 0 0-.642-1.154Zm-.386 6.841-2.552-.684a.66.66 0 1 0-.342 1.276l2.552.684a.66.66 0 0 0 .342-1.276ZM26.183.49 25.5 3.042a.661.661 0 0 0 1.276.342L27.46.832a.662.662 0 0 0-1.162-.573.66.66 0 0 0-.114.231Z" fill="#fff"/></svg>