<svg width="32" height="32" fill="none" xmlns="http://www.w3.org/2000/svg"><path d="M31.061.001a25.3 25.3 0 0 0-18.04 7.75l-1.69 1.692-1.8-1.8-5.306 1.5L0 13.372l3.7 3.7.191.191-1.739 3.595L3.3 22.006.492 24.813l1.326 1.326 2.807-2.808 1.358 1.358-5.945 5.946 1.326 1.326 5.944-5.945 1.358 1.358-2.807 2.808 1.326 1.326L9.992 28.7l1.148 1.151 3.592-1.741 3.893 3.893 4.227-4.228 1.5-5.3-1.8-1.8 1.691-1.691a25.755 25.755 0 0 0 5.62-8.061A25 25 0 0 0 32 0l-.939.001ZM5.208 10.815l3.777-1.064L10 10.769l-4.973 4.982-2.375-2.379 2.556-2.557Zm6.315 16.763-7.1-7.1.877-1.809 8.032 8.033-1.809.876Zm10.727-4.56-1.069 3.773-2.557 2.56-2.375-2.376 4.977-4.978 1.024 1.021Zm.685-5.386-1.709 1.71-6.3 6.3-8.57-8.571 6.3-6.3 1.709-1.71A23.465 23.465 0 0 1 30.1 1.898a23.419 23.419 0 0 1-7.167 15.733l.002.001Z" fill="#FCF9F7"/><path d="M22.972 15.071a4.273 4.273 0 1 0-6.043 0 4.283 4.283 0 0 0 6.043 0Zm-3.019-5.424a2.4 2.4 0 1 1-2.4 2.4c.002-.644 1.087-2.4 2.402-2.4h-.002Z" fill="#FCF9F7"/></svg>