<svg width="33" height="32" fill="none" xmlns="http://www.w3.org/2000/svg"><g clip-path="url(#a)" fill="#2D2E33"><path d="M30.427 12.513a2.101 2.101 0 0 0 .55-2.189 2.151 2.151 0 0 0-1.756-1.453l-7.216-1.029a.433.433 0 0 1-.327-.234L18.45 1.19a2.193 2.193 0 0 0-3.9 0l-3.227 6.419a.436.436 0 0 1-.328.234L3.78 8.872a2.151 2.151 0 0 0-1.756 1.453 2.1 2.1 0 0 0 .55 2.189l5.22 5a.422.422 0 0 1 .126.378l-1.233 7.055a2.1 2.1 0 0 0 .865 2.088 2.2 2.2 0 0 0 2.29.155l6.454-3.331a.441.441 0 0 1 .4 0l6.462 3.331a2.2 2.2 0 0 0 2.29-.163 2.1 2.1 0 0 0 .865-2.088L25.08 17.89a.422.422 0 0 1 .125-.378l5.222-4.999Zm-7.061 5.663 1.233 7.055a.414.414 0 0 1-.173.418.432.432 0 0 1-.458.032l-6.455-3.331a2.212 2.212 0 0 0-2.024 0l-6.454 3.331a.43.43 0 0 1-.458-.032.413.413 0 0 1-.173-.418l1.233-7.055a2.11 2.11 0 0 0-.625-1.89l-5.221-5a.41.41 0 0 1-.11-.438.42.42 0 0 1 .35-.291l7.21-1.025a2.172 2.172 0 0 0 1.639-1.168l3.227-6.419a.439.439 0 0 1 .78 0l3.227 6.419a2.171 2.171 0 0 0 1.637 1.168l7.216 1.029a.421.421 0 0 1 .35.291.41.41 0 0 1-.11.438l-5.22 5a2.11 2.11 0 0 0-.621 1.886ZM26.67 1.219a.875.875 0 0 0-1.222.194l-.93 1.278a.875.875 0 0 0 1.417 1.028l.929-1.278a.875.875 0 0 0-.194-1.222ZM8.475 2.686l-.93-1.278A.875.875 0 1 0 6.13 2.436l.929 1.278a.875.875 0 1 0 1.416-1.028ZM3.21 19.211a.875.875 0 0 0-1.1-.562l-1.5.488a.875.875 0 1 0 .54 1.664l1.5-.488a.875.875 0 0 0 .56-1.102Zm13.291 9.459a.875.875 0 0 0-.875.875v1.58a.875.875 0 0 0 1.75 0v-1.58a.875.875 0 0 0-.875-.875Zm15.894-9.534-1.5-.488a.875.875 0 0 0-.541 1.664l1.5.488a.875.875 0 0 0 .541-1.664Z"/></g><defs><clipPath id="a"><path fill="#fff" d="M0 0h33v32H0z"/></clipPath></defs></svg>