<svg width="45" height="43" fill="none" xmlns="http://www.w3.org/2000/svg"><g clip-path="url(#a)" fill="#FCF9F7"><path d="M15.255 20.069c3.23 0 5.857-2.091 5.857-4.661a.71.71 0 0 0-.214-.508.74.74 0 0 0-1.036 0 .71.71 0 0 0-.214.508c0 1.596-1.586 2.924-3.661 3.18v-2.275a1.66 1.66 0 0 0 .222-.132l1.243-.869a1.74 1.74 0 0 0 .54-.62 1.7 1.7 0 0 0 .192-.795 1.668 1.668 0 0 0-.48-1.201 1.74 1.74 0 0 0-1.206-.518h-2.485a1.74 1.74 0 0 0-1.206.517 1.668 1.668 0 0 0-.48 1.2 1.71 1.71 0 0 0 .191.795c.128.246.313.459.54.62l1.244.87c.07.049.145.093.222.13v2.277c-2.075-.257-3.661-1.585-3.661-3.181a.71.71 0 0 0-.214-.507.74.74 0 0 0-1.036 0 .71.71 0 0 0-.214.507c-.001 2.573 2.627 4.663 5.856 4.663Zm-1.346-5.923a.307.307 0 0 1-.118-.249.257.257 0 0 1 .054-.184.267.267 0 0 1 .168-.099h2.485c.067.01.127.046.168.098.041.053.06.12.054.185a.3.3 0 0 1-.118.249l-1.243.869a.172.172 0 0 1-.208 0l-1.242-.87Zm5.679-1.963a.725.725 0 0 0 .732-.717.725.725 0 0 0-.732-.717.725.725 0 0 0-.732.717c0 .396.328.717.732.717Zm-8.708 0a.725.725 0 0 0 .733-.717.725.725 0 0 0-.732-.717.725.725 0 0 0-.732.717c0 .396.328.717.732.717Zm23.216 14.335c.58 0 1.146-.168 1.627-.484a2.882 2.882 0 0 0 1.08-1.287 2.83 2.83 0 0 0 .166-1.658 2.85 2.85 0 0 0-.802-1.469 2.948 2.948 0 0 0-1.5-.785 2.986 2.986 0 0 0-1.693.164 2.917 2.917 0 0 0-1.314 1.057 2.828 2.828 0 0 0-.493 1.594c0 .76.309 1.49.858 2.028a2.96 2.96 0 0 0 2.071.84Zm0-4.303c.29 0 .573.084.813.242.241.157.429.381.54.643a1.407 1.407 0 0 1-.318 1.563 1.493 1.493 0 0 1-1.596.31 1.459 1.459 0 0 1-.656-.527 1.414 1.414 0 0 1 .182-1.811 1.48 1.48 0 0 1 1.035-.42Z"/><path d="M44.271 27.95h-4.354v-9.317a.708.708 0 0 0-.132-.41l-5.08-7.167a.717.717 0 0 0-.594-.306.734.734 0 0 0-.595.306l-5.08 7.167a.706.706 0 0 0-.13.41v4.485a11.43 11.43 0 0 0-3.958-3.259 10.562 10.562 0 0 0 2.5-6.959 11.191 11.191 0 0 0-.532-3.446 5.077 5.077 0 0 0 2.185-2.218 4.936 4.936 0 0 0 .453-3.05 4.994 4.994 0 0 0-1.449-2.735A5.172 5.172 0 0 0 24.7.057a5.163 5.163 0 0 0-3.095.505 5.017 5.017 0 0 0-2.199 2.192 14.715 14.715 0 0 0-8.348 0A5.016 5.016 0 0 0 8.855.56a5.162 5.162 0 0 0-3.1-.502 5.108 5.108 0 0 0-2.806 1.384A4.93 4.93 0 0 0 1.514 4.18a4.937 4.937 0 0 0 .45 3.053 5.077 5.077 0 0 0 2.187 2.221A11.19 11.19 0 0 0 3.62 12.9a10.563 10.563 0 0 0 2.5 6.96 10.886 10.886 0 0 0-4.186 3.574 10.587 10.587 0 0 0-1.858 5.154L0 29.576a.68.68 0 0 0 0 .098c.056.836.36 1.639.876 2.308a4.389 4.389 0 0 0 2.024 1.46 6.973 6.973 0 0 0-.723 3.112c0 3.556 2.6 6.45 5.806 6.45a5.617 5.617 0 0 0 2.426-.59 5.496 5.496 0 0 0 1.912-1.579 6.15 6.15 0 0 0 2.92.736 6.15 6.15 0 0 0 2.92-.736 5.496 5.496 0 0 0 1.914 1.573 5.617 5.617 0 0 0 2.425.587 5.872 5.872 0 0 0 3.147-1.03 5.693 5.693 0 0 0 2.053-2.553h16.572a.736.736 0 0 0 .514-.209A.707.707 0 0 0 45 38.7V28.666a.703.703 0 0 0-.212-.506.73.73 0 0 0-.516-.21Zm-10.16-15.234L37.8 17.92h-7.375l3.687-5.204Zm-4.355 6.634h8.71v8.6h-8.158a11.552 11.552 0 0 0-.552-2.155V19.35ZM27.58 33.433a4.385 4.385 0 0 0 1.781-1.183h1.121v2.867h-2.323a6.856 6.856 0 0 0-.579-1.684Zm1.367-4.73.065.919a2.835 2.835 0 0 1-.7 1.637c-.404.46-.947.782-1.55.92a5.625 5.625 0 0 0-3.553-2.028 12.375 12.375 0 0 0-2.753-7.487 10.636 10.636 0 0 0 2.817-1.731 9.576 9.576 0 0 1 3.918 3.128 9.3 9.3 0 0 1 1.756 4.643Zm-5.004-27.27c.8.003 1.575.263 2.208.741A3.556 3.556 0 0 1 27.3 6.369a3.618 3.618 0 0 1-1.53 1.74 10.005 10.005 0 0 0-2.032-2.818 10.507 10.507 0 0 0-2.97-2.02A3.592 3.592 0 0 1 22.1 1.929a3.69 3.69 0 0 1 1.843-.495ZM2.9 5.016a3.502 3.502 0 0 1 .745-2.19A3.63 3.63 0 0 1 5.606 1.55c.78-.2 1.607-.14 2.349.173a3.598 3.598 0 0 1 1.744 1.552 10.5 10.5 0 0 0-2.97 2.02A10.004 10.004 0 0 0 4.697 8.11 3.633 3.633 0 0 1 3.38 6.797a3.54 3.54 0 0 1-.482-1.781H2.9Zm4.848 1.3a10.389 10.389 0 0 1 3.465-2.103 10.548 10.548 0 0 1 4.025-.63c1.371-.053 2.74.16 4.025.63a10.39 10.39 0 0 1 3.465 2.103 9.14 9.14 0 0 1 2.012 3.028 8.99 8.99 0 0 1 .66 3.555 8.99 8.99 0 0 1-.661 3.558 9.14 9.14 0 0 1-2.016 3.03 10.387 10.387 0 0 1-3.465 2.103 10.54 10.54 0 0 1-4.025.63c-1.371.053-2.74-.16-4.025-.63a10.388 10.388 0 0 1-3.465-2.103A9.14 9.14 0 0 1 5.73 16.46a8.99 8.99 0 0 1-.659-3.555 8.99 8.99 0 0 1 .659-3.558 9.139 9.139 0 0 1 2.013-3.03h.004ZM1.453 29.62l.065-.919a9.3 9.3 0 0 1 1.756-4.643 9.577 9.577 0 0 1 3.918-3.128 10.634 10.634 0 0 0 2.83 1.737 12.426 12.426 0 0 0-2.75 7.482 5.625 5.625 0 0 0-3.556 2.032 2.937 2.937 0 0 1-1.559-.918 2.835 2.835 0 0 1-.704-1.642v-.001Zm6.53 11.95c-2.4 0-4.355-2.253-4.355-5.017 0-2.764 1.954-5.019 4.355-5.019 2.401 0 4.355 2.253 4.355 5.017 0 2.764-1.954 5.015-4.355 5.015v.004Zm7.258-1.433a4.738 4.738 0 0 1-2.148-.522 6.981 6.981 0 0 0 .7-3.061c0-3.276-2.21-5.989-5.063-6.395a10.653 10.653 0 0 1 2.79-6.976c2.44.63 5.006.63 7.446 0a10.6 10.6 0 0 1 2.794 6.98c-2.852.406-5.064 3.117-5.064 6.395a6.98 6.98 0 0 0 .7 3.06 4.74 4.74 0 0 1-2.155.514v.005Zm7.258 1.429c-2.4 0-4.355-2.253-4.355-5.017 0-2.764 1.955-5.015 4.355-5.015 2.4 0 4.355 2.253 4.355 5.017 0 2.764-1.955 5.015-4.355 5.015Zm5.806-5.017h2.9a.741.741 0 0 0 .515-.211.712.712 0 0 0 .211-.506v-4.298a.7.7 0 0 0-.211-.506.729.729 0 0 0-.515-.211h-.984c.133-.37.214-.756.24-1.147a.727.727 0 0 0 0-.098l-.01-.193h2.933v8.6h-5.226c.097-.472.146-.952.146-1.433l.001.003Zm15.241 1.433h-8.71V29.38h8.71v8.603Z"/><path d="M36.943 36.551h4.393a.743.743 0 0 0 .623-.34.707.707 0 0 0 .032-.698l-2.2-4.303a.722.722 0 0 0-.27-.29.743.743 0 0 0-1.04.29l-2.2 4.303a.704.704 0 0 0 .032.698.726.726 0 0 0 .623.34h.007Zm2.2-3.416 1.012 1.982h-2.024l1.012-1.982Z"/></g><defs><clipPath id="a"><path fill="#fff" d="M0 0h44.997v43H0z"/></clipPath></defs></svg>