<svg width="38" height="43" viewBox="0 0 38 43" fill="none" xmlns="http://www.w3.org/2000/svg">
<g clip-path="url(#clip0_133_173)">
<path d="M0 11.4671V30.8165C0.00576003 31.7711 0.39375 32.6845 1.07884 33.3562C1.76393 34.0279 2.69016 34.4031 3.6543 34.3994H10.9619C11.075 34.4002 11.1865 34.4264 11.2878 34.4762C11.3892 34.5259 11.4778 34.5979 11.5469 34.6866L17.3144 42.2258C17.5238 42.4709 17.7851 42.6673 18.0798 42.8011C18.3745 42.935 18.6954 43.003 19.0196 43.0002C19.3438 42.9975 19.6635 42.9242 19.9558 42.7854C20.2482 42.6467 20.5061 42.4459 20.7113 42.1974L26.4521 34.6866C26.5213 34.598 26.6099 34.5261 26.7113 34.4764C26.8126 34.4266 26.924 34.4003 27.0371 34.3994H34.3457C35.3098 34.4031 36.2361 34.0279 36.9212 33.3562C37.6063 32.6845 37.9942 31.7711 38 30.8165V11.4671C37.9942 10.5125 37.6063 9.59914 36.9212 8.92744C36.2361 8.25573 35.3098 7.88054 34.3457 7.88419H29.5581C28.9014 5.61235 27.5153 3.61402 25.6096 2.19143C23.7039 0.768841 21.3822 -0.000640869 18.9955 -0.000640869C16.6089 -0.000640869 14.2872 0.768841 12.3815 2.19143C10.4758 3.61402 9.08973 5.61235 8.43301 7.88419H3.6543C2.69016 7.88054 1.76393 8.25573 1.07884 8.92744C0.39375 9.59914 0.00576003 10.5125 0 11.4671ZM18.5407 1.44453C19.8235 1.38271 21.1056 1.57762 22.3105 2.01761C23.5154 2.45761 24.6184 3.13364 25.5534 4.0053C26.4828 4.87153 27.2237 5.91671 27.7304 7.07668C28.2371 8.23664 28.499 9.48691 28.5 10.7507C28.5037 12.0279 28.2379 13.2918 27.7196 14.4613C27.2013 15.6308 26.4419 16.6802 25.4901 17.5422C24.5805 18.4006 23.8593 19.4354 23.3714 20.5819C22.8835 21.7285 22.6394 22.9622 22.6543 24.2063V25.0883H15.3417V24.3268C15.3579 23.056 15.1117 21.7952 14.6181 20.6219C14.1245 19.4487 13.394 18.3877 12.4713 17.504C11.1219 16.2568 10.176 14.6416 9.75322 12.8625C9.33041 11.0833 9.44965 9.21997 10.0959 7.50787C10.7513 5.79027 11.901 4.30065 13.4027 3.22332C14.9044 2.14599 16.6921 1.52823 18.5447 1.44649L18.5407 1.44453ZM21.1924 30.1001H16.8076C16.6162 30.1015 16.4264 30.0655 16.2491 29.9942C16.0717 29.9229 15.9104 29.8176 15.7742 29.6844C15.638 29.5512 15.5297 29.3927 15.4555 29.218C15.3813 29.0433 15.3426 28.8558 15.3417 28.6663V26.5162H22.6494V28.6663C22.6475 29.0476 22.4931 29.4125 22.2201 29.6813C21.947 29.95 21.5774 30.1006 21.1924 30.1001ZM1.46192 11.4671C1.46269 11.1832 1.52008 10.9023 1.63079 10.6404C1.7415 10.3786 1.90335 10.1409 2.10705 9.94116C2.31075 9.74138 2.55229 9.58341 2.81781 9.47629C3.08333 9.36917 3.3676 9.31503 3.6543 9.31697H8.14597C8.12518 9.46691 8.09747 9.61097 8.08361 9.76679C7.93108 11.3887 8.1566 13.0237 8.74279 14.5457C9.32899 16.0677 10.2602 17.4362 11.4647 18.5457C12.2441 19.2948 12.8608 20.1936 13.2769 21.187C13.6931 22.1805 13.8999 23.2476 13.8848 24.3229V28.6663C13.8893 29.3025 14.107 29.9192 14.5038 30.4196C14.9006 30.92 15.454 31.2757 16.0772 31.4309V32.2493C16.0772 32.4412 16.1542 32.6253 16.2912 32.761C16.4283 32.8967 16.6143 32.973 16.8081 32.973C17.002 32.973 17.1879 32.8967 17.325 32.761C17.4621 32.6253 17.5391 32.4412 17.5391 32.2493V31.5329H20.4619V32.2493C20.4619 32.4412 20.5389 32.6253 20.676 32.761C20.8131 32.8967 20.999 32.973 21.1929 32.973C21.3867 32.973 21.5727 32.8967 21.7097 32.761C21.8468 32.6253 21.9238 32.4412 21.9238 32.2493V31.4309C22.547 31.2757 23.1004 30.92 23.4972 30.4196C23.894 29.9192 24.1117 29.3025 24.1162 28.6663V24.2014C24.1017 23.1545 24.3051 22.1159 24.7138 21.1503C25.1225 20.1846 25.7277 19.3127 26.4917 18.5889C27.5902 17.5936 28.4665 16.3821 29.0646 15.032C29.6627 13.6819 29.9694 12.223 29.9649 10.7488C29.9611 10.269 29.9251 9.79003 29.857 9.31501H34.3457C34.6326 9.31307 34.917 9.36728 35.1827 9.47452C35.4483 9.58175 35.6899 9.73991 35.8937 9.93989C36.0974 10.1399 36.2592 10.3777 36.3698 10.6398C36.4804 10.9019 36.5376 11.1831 36.5381 11.4671V30.8165C36.5373 31.1004 36.4799 31.3813 36.3692 31.6432C36.2585 31.905 36.0967 32.1427 35.893 32.3424C35.6893 32.5422 35.4477 32.7002 35.1822 32.8073C34.9167 32.9144 34.6324 32.9686 34.3457 32.9666H27.0381C26.6988 32.9679 26.3643 33.0461 26.0602 33.1952C25.7562 33.3444 25.4907 33.5605 25.2842 33.8271L19.5642 41.3085C19.4201 41.4548 19.224 41.5397 19.0177 41.545C18.8114 41.5503 18.6111 41.4757 18.4596 41.3369L12.7188 33.8261C12.5124 33.5594 12.247 33.3431 11.9429 33.194C11.6388 33.0448 11.3042 32.9667 10.9649 32.9656H3.6543C3.3676 32.9676 3.08333 32.9134 2.81781 32.8063C2.55229 32.6992 2.31075 32.5412 2.10705 32.3415C1.90335 32.1417 1.7415 31.904 1.63079 31.6422C1.52008 31.3803 1.46269 31.0994 1.46192 30.8155V11.4671Z" fill="#FCF9F7"/>
<path d="M17.538 20.0667C17.3461 20.0667 17.1621 20.1422 17.0264 20.2766C16.8907 20.4109 16.8145 20.5931 16.8145 20.7831V22.9333C16.8145 23.1234 16.8907 23.3057 17.0265 23.4402C17.1623 23.5746 17.3465 23.6502 17.5385 23.6502C17.7305 23.6502 17.9147 23.5746 18.0505 23.4402C18.1862 23.3057 18.2625 23.1234 18.2625 22.9333V20.7831C18.2625 20.689 18.2438 20.5957 18.2073 20.5088C18.1709 20.4218 18.1175 20.3428 18.0502 20.2762C17.983 20.2097 17.9031 20.1569 17.8152 20.121C17.7273 20.085 17.6331 20.0666 17.538 20.0667Z" fill="#FCF9F7"/>
<path d="M16.8145 17.2012C16.8145 17.3913 16.8907 17.5737 17.0265 17.7081C17.1623 17.8425 17.3465 17.9181 17.5385 17.9181C17.7305 17.9181 17.9147 17.8425 18.0505 17.7081C18.1862 17.5737 18.2625 17.3913 18.2625 17.2012V16.4848C18.2625 16.2947 18.1862 16.1123 18.0505 15.9779C17.9147 15.8434 17.7305 15.7679 17.5385 15.7679C17.3465 15.7679 17.1623 15.8434 17.0265 15.9779C16.8907 16.1123 16.8145 16.2947 16.8145 16.4848V17.2012Z" fill="#FCF9F7"/>
<path d="M20.4618 23.6497C20.6537 23.6497 20.8378 23.5742 20.9734 23.4398C21.1091 23.3055 21.1854 23.1233 21.1854 22.9333V20.7831C21.1854 20.593 21.1091 20.4107 20.9733 20.2762C20.8375 20.1418 20.6534 20.0663 20.4613 20.0663C20.2693 20.0663 20.0851 20.1418 19.9494 20.2762C19.8136 20.4107 19.7373 20.593 19.7373 20.7831V22.9333C19.7373 23.0274 19.7561 23.1207 19.7925 23.2077C19.8289 23.2946 19.8823 23.3737 19.9496 23.4402C20.0169 23.5067 20.0967 23.5595 20.1846 23.5954C20.2725 23.6314 20.3667 23.6498 20.4618 23.6497Z" fill="#FCF9F7"/>
<path d="M20.4618 17.9176C20.6537 17.9176 20.8378 17.8421 20.9734 17.7077C21.1091 17.5734 21.1854 17.3912 21.1854 17.2012V16.4848C21.1854 16.2947 21.1091 16.1123 20.9733 15.9779C20.8375 15.8434 20.6534 15.7679 20.4613 15.7679C20.2693 15.7679 20.0851 15.8434 19.9494 15.9779C19.8136 16.1123 19.7373 16.2947 19.7373 16.4848V17.2012C19.7373 17.2953 19.7561 17.3886 19.7925 17.4756C19.8289 17.5625 19.8823 17.6416 19.9496 17.7081C20.0169 17.7746 20.0967 17.8274 20.1846 17.8633C20.2725 17.8993 20.3667 17.9177 20.4618 17.9176Z" fill="#FCF9F7"/>
<path d="M7.23729 5.01669C7.38681 5.01631 7.53254 4.97006 7.65443 4.88432C7.77633 4.79858 7.8684 4.67756 7.91799 4.53789C7.96757 4.39823 7.97224 4.24678 7.93135 4.10438C7.89046 3.96198 7.80601 3.83562 7.68962 3.74268L4.07095 0.87418C3.99731 0.811552 3.91169 0.764237 3.8192 0.735053C3.7267 0.705869 3.62922 0.695412 3.53256 0.704306C3.4359 0.7132 3.34204 0.741263 3.25656 0.786823C3.17108 0.832383 3.09573 0.894508 3.03501 0.9695C2.97428 1.04449 2.92942 1.13082 2.90309 1.22333C2.87677 1.31585 2.86951 1.41266 2.88176 1.50801C2.89401 1.60336 2.92551 1.6953 2.97439 1.77834C3.02327 1.86139 3.08853 1.93384 3.16628 1.99139L6.78495 4.85989C6.91336 4.96152 7.0729 5.01682 7.23729 5.01669Z" fill="#FCF9F7"/>
<path d="M31.2141 4.85988L34.8337 1.99138C34.9097 1.93312 34.9731 1.86048 35.0204 1.77769C35.0676 1.6949 35.0978 1.60362 35.109 1.50917C35.1203 1.41473 35.1125 1.319 35.086 1.22759C35.0595 1.13617 35.0149 1.05089 34.9548 0.976724C34.8946 0.902556 34.8202 0.840983 34.7358 0.795597C34.6514 0.750211 34.5587 0.72192 34.4631 0.712374C34.3676 0.702828 34.271 0.712217 34.1792 0.739996C34.0873 0.767774 34.0019 0.813385 33.9281 0.874169L30.3094 3.7407C30.2352 3.79952 30.1734 3.87223 30.1276 3.95469C30.0817 4.03715 30.0527 4.12774 30.0423 4.22129C30.0318 4.31484 30.04 4.40952 30.0665 4.49992C30.093 4.59032 30.1372 4.67467 30.1966 4.74816C30.256 4.82164 30.3294 4.88283 30.4127 4.92821C30.496 4.9736 30.5875 5.00229 30.682 5.01267C30.7764 5.02304 30.8721 5.01489 30.9634 4.98867C31.0547 4.96246 31.1399 4.91869 31.2141 4.85988Z" fill="#FCF9F7"/>
<path d="M3.0534 25.5313C3.11277 25.6048 3.1862 25.666 3.26948 25.7114C3.35276 25.7569 3.44427 25.7856 3.53877 25.7959C3.63326 25.8063 3.7289 25.7982 3.82021 25.7719C3.91152 25.7457 3.9967 25.7019 4.0709 25.643L7.69057 22.7745C7.76649 22.7162 7.82993 22.6436 7.8772 22.5608C7.92447 22.478 7.95461 22.3867 7.96588 22.2923C7.97715 22.1979 7.96931 22.1021 7.94282 22.0107C7.91633 21.9193 7.87172 21.834 7.8116 21.7599C7.75148 21.6857 7.67704 21.6241 7.59263 21.5787C7.50822 21.5333 7.41553 21.505 7.31996 21.4955C7.2244 21.486 7.12787 21.4953 7.036 21.5231C6.94414 21.5509 6.85878 21.5965 6.78491 21.6573L3.16624 24.5238C3.09198 24.5826 3.03015 24.6553 2.98428 24.7378C2.93842 24.8202 2.90942 24.9108 2.89894 25.0044C2.88846 25.098 2.89671 25.1927 2.92321 25.2831C2.94972 25.3735 2.99395 25.4578 3.0534 25.5313Z" fill="#FCF9F7"/>
<path d="M33.9281 25.643C34.078 25.7618 34.2694 25.8167 34.4602 25.7958C34.651 25.7748 34.8256 25.6797 34.9456 25.5313C35.0655 25.3829 35.1211 25.1934 35.0999 25.0044C35.0787 24.8155 34.9826 24.6426 34.8327 24.5238L31.2141 21.6573C31.1399 21.5985 31.0547 21.5547 30.9634 21.5285C30.8721 21.5023 30.7764 21.4941 30.682 21.5045C30.5875 21.5149 30.496 21.5436 30.4127 21.589C30.3294 21.6343 30.256 21.6955 30.1966 21.769C30.1372 21.8425 30.093 21.9269 30.0665 22.0173C30.04 22.1077 30.0318 22.2023 30.0423 22.2959C30.0527 22.3894 30.0817 22.48 30.1276 22.5625C30.1734 22.6449 30.2352 22.7177 30.3094 22.7765L33.9281 25.643Z" fill="#FCF9F7"/>
<path d="M12.2951 9.30326C12.3407 9.31234 12.3871 9.31694 12.4336 9.31698C12.6015 9.31683 12.7642 9.25886 12.8936 9.15302C13.0231 9.04717 13.1114 8.90003 13.1433 8.73681C13.3549 7.91174 13.751 7.14426 14.3023 6.49105C14.8536 5.83783 15.546 5.31556 16.3284 4.96279C16.4163 4.92688 16.4962 4.87419 16.5635 4.80772C16.6308 4.74126 16.6842 4.66232 16.7207 4.57541C16.7572 4.4885 16.776 4.39533 16.7761 4.30121C16.7763 4.20709 16.7577 4.11387 16.7214 4.02687C16.6851 3.93988 16.6319 3.8608 16.5648 3.79416C16.4977 3.72753 16.4179 3.67464 16.3301 3.63851C16.2424 3.60238 16.1483 3.58372 16.0532 3.5836C15.9582 3.58348 15.864 3.6019 15.7761 3.63781C14.7685 4.07627 13.8774 4.74046 13.1732 5.57803C12.4689 6.41561 11.9708 7.40368 11.718 8.46437C11.7001 8.55698 11.7008 8.65219 11.7201 8.74452C11.7394 8.83686 11.777 8.92451 11.8306 9.00245C11.8842 9.08039 11.9528 9.14708 12.0325 9.1987C12.1122 9.25032 12.2015 9.28585 12.2951 9.30326Z" fill="#FCF9F7"/>
<path d="M3.61856 12.9009H5.79016C5.98219 12.9009 6.16635 12.8254 6.30213 12.6909C6.43791 12.5565 6.51419 12.3741 6.51419 12.184C6.51419 11.9939 6.43791 11.8115 6.30213 11.6771C6.16635 11.5427 5.98219 11.4671 5.79016 11.4671H3.61856C3.42654 11.4671 3.24238 11.5427 3.10659 11.6771C2.97081 11.8115 2.89453 11.9939 2.89453 12.184C2.89453 12.3741 2.97081 12.5565 3.10659 12.6909C3.24238 12.8254 3.42654 12.9009 3.61856 12.9009Z" fill="#FCF9F7"/>
<path d="M32.2096 12.9009H34.3812C34.5732 12.9009 34.7574 12.8254 34.8932 12.6909C35.029 12.5565 35.1053 12.3741 35.1053 12.184C35.1053 11.9939 35.029 11.8115 34.8932 11.6771C34.7574 11.5427 34.5732 11.4671 34.3812 11.4671H32.2096C32.0176 11.4671 31.8334 11.5427 31.6977 11.6771C31.5619 11.8115 31.4856 11.9939 31.4856 12.184C31.4856 12.3741 31.5619 12.5565 31.6977 12.6909C31.8334 12.8254 32.0176 12.9009 32.2096 12.9009Z" fill="#FCF9F7"/>
</g>
<defs>
<clipPath id="clip0_133_173">
<rect width="38" height="43" fill="white"/>
</clipPath>
</defs>
</svg>
