<svg width="38" height="43" fill="none" xmlns="http://www.w3.org/2000/svg"><g clip-path="url(#a)" fill="#FCF9F7"><path d="M0 11.467v19.35a3.587 3.587 0 0 0 1.079 2.54 3.659 3.659 0 0 0 2.575 1.042h7.308a.75.75 0 0 1 .585.288l5.767 7.539A2.206 2.206 0 0 0 19.02 43a2.226 2.226 0 0 0 1.691-.803l5.741-7.51a.745.745 0 0 1 .585-.288h7.309a3.66 3.66 0 0 0 2.575-1.043A3.587 3.587 0 0 0 38 30.816V11.468a3.587 3.587 0 0 0-1.079-2.54 3.66 3.66 0 0 0-2.575-1.043h-4.788a10.877 10.877 0 0 0-3.948-5.693A11.059 11.059 0 0 0 18.996 0c-2.387 0-4.709.77-6.614 2.192a10.877 10.877 0 0 0-3.949 5.693H3.654A3.66 3.66 0 0 0 1.08 8.927 3.587 3.587 0 0 0 0 11.467ZM18.54 1.445a9.64 9.64 0 0 1 3.77.573 9.568 9.568 0 0 1 3.243 1.987 9.275 9.275 0 0 1 2.177 3.072 9.195 9.195 0 0 1-.01 7.384 9.17 9.17 0 0 1-2.23 3.081 9.057 9.057 0 0 0-2.119 3.04 8.98 8.98 0 0 0-.717 3.624v.882h-7.312v-.761a9.249 9.249 0 0 0-.724-3.705 9.326 9.326 0 0 0-2.147-3.118 9.227 9.227 0 0 1-2.718-4.642 9.16 9.16 0 0 1 .343-5.354 9.4 9.4 0 0 1 3.307-4.285 9.544 9.544 0 0 1 5.142-1.777l-.004-.001ZM21.193 30.1h-4.384a1.468 1.468 0 0 1-1.034-.416 1.44 1.44 0 0 1-.432-1.018v-2.15h7.307v2.15a1.434 1.434 0 0 1-.429 1.015c-.273.269-.643.42-1.028.42ZM1.462 11.467a2.138 2.138 0 0 1 .645-1.526 2.18 2.18 0 0 1 1.547-.624h4.492c-.02.15-.049.294-.062.45a10.546 10.546 0 0 0 .659 4.779 10.638 10.638 0 0 0 2.722 4 7.895 7.895 0 0 1 1.812 2.641 7.83 7.83 0 0 1 .608 3.136v4.343c.004.636.222 1.253.619 1.754.397.5.95.856 1.573 1.01v.82a.72.72 0 0 0 .214.511.735.735 0 0 0 1.034 0 .72.72 0 0 0 .214-.512v-.716h2.923v.716a.72.72 0 0 0 .214.512.735.735 0 0 0 1.034 0 .72.72 0 0 0 .214-.512v-.818a2.902 2.902 0 0 0 1.573-1.011c.397-.5.615-1.118.62-1.754v-4.465a7.558 7.558 0 0 1 .597-3.05 7.62 7.62 0 0 1 1.778-2.562 10.588 10.588 0 0 0 2.573-3.557c.598-1.35.904-2.809.9-4.283a10.7 10.7 0 0 0-.108-1.434h4.489a2.197 2.197 0 0 1 1.548.625 2.155 2.155 0 0 1 .644 1.527v19.35a2.138 2.138 0 0 1-.645 1.525 2.18 2.18 0 0 1-1.547.625h-7.308a2.216 2.216 0 0 0-1.754.86l-5.72 7.482a.796.796 0 0 1-1.104.028l-5.741-7.51a2.237 2.237 0 0 0-1.754-.86h-7.31a2.196 2.196 0 0 1-1.548-.625 2.156 2.156 0 0 1-.645-1.526v-19.35Z"/><path d="M17.538 20.067a.727.727 0 0 0-.512.21.713.713 0 0 0-.212.506v2.15c0 .19.077.373.212.507a.728.728 0 0 0 1.024 0 .714.714 0 0 0 .212-.507v-2.15a.708.708 0 0 0-.212-.507.723.723 0 0 0-.512-.21Zm-.724-2.866c0 .19.077.373.212.507a.728.728 0 0 0 1.024 0 .714.714 0 0 0 .212-.507v-.716a.714.714 0 0 0-.212-.507.728.728 0 0 0-1.024 0 .713.713 0 0 0-.212.507v.716Zm3.648 6.449a.727.727 0 0 0 .511-.21.713.713 0 0 0 .212-.507v-2.15a.713.713 0 0 0-.212-.507.728.728 0 0 0-1.024 0 .713.713 0 0 0-.212.507v2.15a.711.711 0 0 0 .448.662.73.73 0 0 0 .277.055Zm0-5.732a.727.727 0 0 0 .511-.21.713.713 0 0 0 .212-.507v-.716a.713.713 0 0 0-.212-.507.727.727 0 0 0-1.024 0 .713.713 0 0 0-.212.507v.716a.711.711 0 0 0 .448.662.73.73 0 0 0 .277.055ZM7.237 5.017a.728.728 0 0 0 .681-.48.71.71 0 0 0-.228-.794L4.07.874a.726.726 0 0 0-1.188.634.712.712 0 0 0 .284.483L6.785 4.86a.728.728 0 0 0 .452.157Zm23.977-.157 3.62-2.869a.718.718 0 0 0 .252-.763.714.714 0 0 0-.35-.432.729.729 0 0 0-.808.078L30.31 3.741a.718.718 0 0 0-.242.759.715.715 0 0 0 .346.428.73.73 0 0 0 .801-.068ZM3.053 25.531a.722.722 0 0 0 .767.24.725.725 0 0 0 .25-.128l3.62-2.869a.719.719 0 0 0 .276-.482.71.71 0 0 0-.373-.713.728.728 0 0 0-.808.078l-3.619 2.867a.718.718 0 0 0-.243.76c.027.09.07.174.13.247Zm30.875.112a.73.73 0 0 0 1.018-.112.712.712 0 0 0-.113-1.007l-3.619-2.867a.726.726 0 0 0-1.172.639.71.71 0 0 0 .267.48l3.62 2.867ZM12.295 9.303a.728.728 0 0 0 .598-.15.715.715 0 0 0 .25-.416 5.664 5.664 0 0 1 1.16-2.246 5.735 5.735 0 0 1 2.025-1.528.724.724 0 0 0 .393-.388.71.71 0 0 0-.156-.78.724.724 0 0 0-.789-.157 7.102 7.102 0 0 0-2.603 1.94 7.01 7.01 0 0 0-1.455 2.886.71.71 0 0 0 .315.735c.08.051.168.087.262.104ZM3.619 12.9H5.79a.727.727 0 0 0 .512-.21.713.713 0 0 0 0-1.013.728.728 0 0 0-.512-.21H3.62a.728.728 0 0 0-.512.21.713.713 0 0 0 0 1.014c.135.134.32.21.512.21Zm28.591 0h2.171a.728.728 0 0 0 .512-.21.713.713 0 0 0 0-1.013.728.728 0 0 0-.512-.21H32.21a.728.728 0 0 0-.512.21.713.713 0 0 0 0 1.014c.135.134.32.21.512.21Z"/></g><defs><clipPath id="a"><path fill="#fff" d="M0 0h38v43H0z"/></clipPath></defs></svg>