<svg width="54" height="37" fill="none" xmlns="http://www.w3.org/2000/svg"><g clip-path="url(#a)" fill="#FCF9F7"><path d="M50.312 29.597h-1.35V2.435a2.417 2.417 0 0 0-.706-1.716A2.449 2.449 0 0 0 46.536 0H7.462a2.449 2.449 0 0 0-1.72.719 2.417 2.417 0 0 0-.706 1.716v27.162H3.687a3.738 3.738 0 0 0-2.595 1.105A3.69 3.69 0 0 0 .022 33.3a3.69 3.69 0 0 0 1.07 2.596A3.738 3.738 0 0 0 3.687 37h46.625a3.738 3.738 0 0 0 2.595-1.105 3.69 3.69 0 0 0 1.07-2.596 3.69 3.69 0 0 0-1.07-2.596 3.738 3.738 0 0 0-2.595-1.106ZM6.512 2.435a.946.946 0 0 1 .277-.672.959.959 0 0 1 .673-.281h39.075a.959.959 0 0 1 .673.281c.178.179.278.42.277.672v27.162H6.513V2.435Zm29.01 28.644c-.151.43-.432.804-.806 1.069-.373.265-.82.408-1.279.41H20.562a2.226 2.226 0 0 1-1.278-.41 2.203 2.203 0 0 1-.805-1.068l17.043-.001Zm14.79 4.442H3.687c-.592 0-1.16-.234-1.58-.65a2.212 2.212 0 0 1 0-3.138 2.24 2.24 0 0 1 1.58-.65H16.95c.167.831.618 1.58 1.276 2.119.658.54 1.484.836 2.337.84h12.875a3.717 3.717 0 0 0 2.337-.84 3.674 3.674 0 0 0 1.276-2.12h13.262c.592 0 1.16.235 1.58.65a2.212 2.212 0 0 1 0 3.14 2.25 2.25 0 0 1-1.58.65Z"/><path d="M45.501 26.951V4.13a.744.744 0 0 0-.453-.684.733.733 0 0 0-.282-.057H9.233a.744.744 0 0 0-.68.46.731.731 0 0 0-.055.281v22.822a.734.734 0 0 0 .213.522.743.743 0 0 0 .522.22h35.534a.742.742 0 0 0 .68-.46.731.731 0 0 0 .054-.282Zm-1.473-.74H9.968V4.87h34.06v21.34Z"/></g><defs><clipPath id="a"><path fill="#fff" d="M0 0h54v37H0z"/></clipPath></defs></svg>