<svg width="44" height="43" fill="none" xmlns="http://www.w3.org/2000/svg"><g clip-path="url(#a)" fill="#FCF9F7"><path d="M43.266 28.191H.734A.737.737 0 0 1 0 27.449V2.97A2.96 2.96 0 0 1 .855.875 2.95 2.95 0 0 1 2.935 0h38.131a2.95 2.95 0 0 1 2.08.876 2.96 2.96 0 0 1 .855 2.092V27.45a.74.74 0 0 1-.735.742ZM1.468 26.707h41.064V2.968a1.48 1.48 0 0 0-1.467-1.484H2.935a1.474 1.474 0 0 0-1.467 1.484v23.74Z"/><path d="M41.066 34.104H2.935a2.95 2.95 0 0 1-2.08-.876A2.96 2.96 0 0 1 0 31.136v-3.708a.74.74 0 0 1 .734-.742h42.532a.737.737 0 0 1 .734.742v3.708a2.96 2.96 0 0 1-.854 2.092 2.95 2.95 0 0 1-2.08.876ZM1.468 28.17v2.966a1.479 1.479 0 0 0 1.467 1.485h38.131a1.474 1.474 0 0 0 1.467-1.485V28.17H1.468Z"/><path d="M24.223 31.138h-4.445a.74.74 0 0 1-.74-.742.742.742 0 0 1 .74-.742h4.445a.74.74 0 0 1 .524 1.267.74.74 0 0 1-.524.217Zm16.082-2.947H3.695a.736.736 0 0 1-.733-.742V3.71a.739.739 0 0 1 .732-.742h36.61a.736.736 0 0 1 .733.742v23.74a.739.739 0 0 1-.732.742ZM4.43 26.707h35.143V4.451H4.43v22.256ZM31.45 43h-18.9a2.22 2.22 0 0 1-2.223-2.226 2.22 2.22 0 0 1 2.222-2.226h18.9a2.22 2.22 0 0 1 2.223 2.226A2.227 2.227 0 0 1 31.45 43Zm-18.9-2.968a.74.74 0 0 0-.525 1.267.74.74 0 0 0 .524.217h18.9a.74.74 0 0 0 .524-1.266.74.74 0 0 0-.523-.218h-18.9Z"/><path d="M30.147 40.032H13.853a.74.74 0 0 1-.74-.741.742.742 0 0 1 .74-.742c2.458 0 3.703-1.748 3.703-5.194a.743.743 0 0 1 .742-.741h7.406a.74.74 0 0 1 .74.742c0 3.445 1.246 5.194 3.704 5.194a.74.74 0 0 1 .74.742.742.742 0 0 1-.74.741h-.001ZM17.46 38.55h9.079a7.107 7.107 0 0 1-1.557-4.451h-5.968a7.11 7.11 0 0 1-1.554 4.45Zm13.033-23.61-2.935-1.47L30.493 12a.716.716 0 0 0 0-1.28l-8.431-4.226a.714.714 0 0 0-.64 0l-8.433 4.222a.717.717 0 0 0 0 1.28l2.935 1.47-2.935 1.47a.714.714 0 0 0-.288 1.018c.07.113.17.205.288.264l2.935 1.47-2.935 1.47a.716.716 0 0 0 0 1.28l8.434 4.227a.714.714 0 0 0 .639 0l8.431-4.223a.716.716 0 0 0 0-1.28l-2.935-1.47 2.935-1.47a.715.715 0 0 0 0-1.283Zm-8.75-7.006 6.833 3.422-6.833 3.424-6.834-3.424 6.834-3.422Zm6.833 11.868-6.833 3.423-6.834-3.423 2.618-1.311 3.896 1.951a.714.714 0 0 0 .639 0l3.895-1.951 2.62 1.311Zm-6.833-.8-6.834-3.423 2.618-1.311 3.896 1.95a.715.715 0 0 0 .639 0l3.896-1.95 2.618 1.311-6.833 3.422Z"/></g><defs><clipPath id="a"><path fill="#fff" d="M0 0h44v43H0z"/></clipPath></defs></svg>