<svg width="42" height="39" fill="none" xmlns="http://www.w3.org/2000/svg"><g clip-path="url(#a)" fill="#FCF9F7"><path d="M39.88 0H9.151a2.13 2.13 0 0 0-2.12 2.127v3.23H2.12A2.13 2.13 0 0 0 0 7.484v27.371c0 1.09.43 2.137 1.198 2.912a4.153 4.153 0 0 0 2.904 1.23h21.792a.619.619 0 0 0 .437-1.054.62.62 0 0 0-.437-.18H7.07a4.138 4.138 0 0 0 1.192-2.91V20.42a.614.614 0 0 0-1.05-.435.614.614 0 0 0-.18.435v14.436c.001.767-.3 1.504-.84 2.049a2.913 2.913 0 0 1-2.043.863h-.018a2.914 2.914 0 0 1-2.052-.856 2.903 2.903 0 0 1-.848-2.053V7.484a.886.886 0 0 1 .889-.893h4.912v11.523a.614.614 0 0 0 1.05.434.614.614 0 0 0 .18-.434V2.127a.886.886 0 0 1 .89-.892h30.727a.89.89 0 0 1 .89.892v32.728a2.913 2.913 0 0 1-2.9 2.913h-9.681a.62.62 0 0 0-.619.618.617.617 0 0 0 .619.617h9.68a4.153 4.153 0 0 0 2.923-1.22A4.138 4.138 0 0 0 42 34.862V2.127A2.122 2.122 0 0 0 39.88 0Z"/><path d="M13.463 24.633h8.482a1.466 1.466 0 0 0 1.463-1.46v-8.467a1.46 1.46 0 0 0-1.463-1.46h-8.482a1.466 1.466 0 0 0-1.462 1.46v8.467a1.46 1.46 0 0 0 1.463 1.46Zm-.226-9.927a.225.225 0 0 1 .226-.226h8.482a.227.227 0 0 1 .227.226v8.467a.226.226 0 0 1-.227.226h-8.482a.227.227 0 0 1-.226-.226v-8.467Zm12.286-.226h11.478a.619.619 0 0 0 .438-1.055.619.619 0 0 0-.438-.18H25.523a.619.619 0 1 0 0 1.234Zm0 5.076h11.478a.619.619 0 0 0 .438-1.054.619.619 0 0 0-.438-.18H25.523a.619.619 0 1 0 0 1.234Zm0 5.077h11.478a.62.62 0 0 0 .619-.617.617.617 0 0 0-.619-.617H25.523a.619.619 0 0 0-.437 1.053.618.618 0 0 0 .437.181ZM12.486 29.71H37a.62.62 0 0 0 .619-.617.617.617 0 0 0-.619-.618H12.486a.62.62 0 0 0-.619.617.617.617 0 0 0 .619.618Zm0 5.076H37a.619.619 0 0 0 .438-1.053.619.619 0 0 0-.438-.181H12.486a.619.619 0 0 0-.438 1.053.62.62 0 0 0 .438.181Zm-.455-24.703v-6.52a.332.332 0 0 1 .192-.307.946.946 0 0 1 .463-.105.98.98 0 0 1 .554.13c.18.156.325.348.423.564l1.943 3.747V3.55a.323.323 0 0 1 .192-.302 1.116 1.116 0 0 1 .927 0 .324.324 0 0 1 .191.302v6.534a.336.336 0 0 1-.197.302.916.916 0 0 1-.459.11.791.791 0 0 1-.755-.412L13.34 6.04v4.043a.335.335 0 0 1-.197.302 1.014 1.014 0 0 1-.922 0 .336.336 0 0 1-.19-.302Zm6.058 0v-6.52a.342.342 0 0 1 .17-.302.725.725 0 0 1 .404-.11h3.585a.34.34 0 0 1 .307.17.729.729 0 0 1 .106.395.742.742 0 0 1-.111.412.343.343 0 0 1-.302.17h-2.85v2.008h1.53a.352.352 0 0 1 .302.156.617.617 0 0 1 .11.367.604.604 0 0 1-.105.347.347.347 0 0 1-.307.156h-1.53v2.02h2.85a.344.344 0 0 1 .302.17.742.742 0 0 1 .11.413.729.729 0 0 1-.105.395.338.338 0 0 1-.307.17h-3.585a.725.725 0 0 1-.403-.11.341.341 0 0 1-.171-.307Zm5.177-6.41a.439.439 0 0 1 .272-.367c.17-.1.365-.154.564-.155.242 0 .386.087.433.261l1.591 5.448.855-3.497c.06-.242.275-.362.645-.362s.58.12.634.362l.855 3.497 1.59-5.448c.048-.174.192-.261.434-.261.199 0 .394.054.564.155a.44.44 0 0 1 .272.367.373.373 0 0 1-.02.12l-1.994 6.323c-.1.295-.386.442-.856.442a1.242 1.242 0 0 1-.543-.115.493.493 0 0 1-.296-.326l-.644-2.714-.655 2.714a.494.494 0 0 1-.297.326c-.17.079-.356.118-.543.115a1.267 1.267 0 0 1-.554-.115.521.521 0 0 1-.303-.326l-1.993-6.322a.373.373 0 0 1-.01-.122Zm8.978 5.668a.782.782 0 0 1 .176-.467.495.495 0 0 1 .395-.236c.11.01.213.053.296.126.113.085.22.177.322.276.132.118.284.212.449.277.204.085.423.128.644.125.285.01.566-.066.805-.22a.74.74 0 0 0 .322-.654.876.876 0 0 0-.176-.537 1.4 1.4 0 0 0-.463-.395 7.33 7.33 0 0 0-.63-.301 10.21 10.21 0 0 1-.69-.327 4.018 4.018 0 0 1-.635-.407 1.627 1.627 0 0 1-.463-.603 2.004 2.004 0 0 1-.176-.86c-.007-.33.067-.657.216-.953.132-.262.332-.484.579-.643.24-.152.5-.265.775-.336a3.46 3.46 0 0 1 .877-.108c.185.001.37.013.554.037.209.027.415.066.62.118.195.044.377.132.533.258a.528.528 0 0 1 .206.413.915.915 0 0 1-.14.463.428.428 0 0 1-.382.239 1.897 1.897 0 0 1-.494-.191 2.066 2.066 0 0 0-.896-.192 1.462 1.462 0 0 0-.841.206.673.673 0 0 0-.055 1.076c.176.153.379.273.598.352.238.09.497.204.776.342.268.132.527.282.775.448.255.18.46.42.599.698.167.332.25.7.242 1.071a1.969 1.969 0 0 1-.659 1.59 2.593 2.593 0 0 1-1.737.561 3.249 3.249 0 0 1-1.64-.394c-.456-.259-.683-.543-.682-.852Z"/></g><defs><clipPath id="a"><path fill="#fff" d="M0 0h42v39H0z"/></clipPath></defs></svg>