<svg width="43" height="43" viewBox="0 0 43 43" fill="none" xmlns="http://www.w3.org/2000/svg">
<g clip-path="url(#clip0_133_315)">
<path d="M40.4652 -2.64197e-07H10.3946C9.72473 -0.00104362 9.08183 0.263576 8.60682 0.735836C8.1318 1.2081 7.86345 1.84945 7.8606 2.51927V5.37451C7.8606 5.59857 7.9496 5.81345 8.10803 5.97189C8.26647 6.13032 8.48136 6.21933 8.70542 6.21933C8.92948 6.21933 9.14436 6.13032 9.30279 5.97189C9.46123 5.81345 9.55023 5.59857 9.55023 5.37451V2.51927C9.55127 2.29611 9.64071 2.08246 9.79897 1.92512C9.95723 1.76778 10.1714 1.67958 10.3946 1.67984H40.4652C40.6883 1.67958 40.9025 1.76778 41.0608 1.92512C41.219 2.08246 41.3085 2.29611 41.3095 2.51927V40.4797C41.3085 40.7029 41.219 40.9166 41.0608 41.0739C40.9025 41.2312 40.6883 41.3194 40.4652 41.3192H10.3946C10.1714 41.3194 9.95723 41.2312 9.79897 41.0739C9.64071 40.9166 9.55127 40.7029 9.55023 40.4797V37.7646C9.55023 37.5405 9.46123 37.3256 9.30279 37.1672C9.14436 37.0088 8.92948 36.9198 8.70542 36.9198C8.48136 36.9198 8.26647 37.0088 8.10803 37.1672C7.9496 37.3256 7.8606 37.5405 7.8606 37.7646V40.4797C7.86319 41.1497 8.13142 41.7913 8.60647 42.2638C9.08151 42.7363 9.72456 43.001 10.3946 43H40.4652C41.135 43.001 41.7779 42.7364 42.2529 42.2642C42.7279 41.7919 42.9963 41.1505 42.9991 40.4807V2.51927C42.9963 1.84945 42.7279 1.2081 42.2529 0.735836C41.7779 0.263576 41.135 -0.00104362 40.4652 -2.64197e-07Z" fill="#FCF9F7"/>
<path d="M36.6048 32.4508H16.9522C16.735 32.4508 16.5267 32.5371 16.3731 32.6907C16.2196 32.8442 16.1333 33.0525 16.1333 33.2697C16.1333 33.4868 16.2196 33.6951 16.3731 33.8487C16.5267 34.0023 16.735 34.0885 16.9522 34.0885H36.6048C36.822 34.0885 37.0303 34.0023 37.1838 33.8487C37.3374 33.6951 37.4237 33.4868 37.4237 33.2697C37.4237 33.0525 37.3374 32.8442 37.1838 32.6907C37.0303 32.5371 36.822 32.4508 36.6048 32.4508Z" fill="#FCF9F7"/>
<path d="M37.1826 37.1798C37.0488 37.0461 36.8727 36.963 36.6844 36.9446C36.4961 36.9262 36.3073 36.9736 36.15 37.0788C35.9928 37.1839 35.8768 37.3404 35.822 37.5215C35.7671 37.7025 35.7768 37.897 35.8492 38.0718C35.9217 38.2466 36.0525 38.3908 36.2193 38.4799C36.3862 38.5691 36.5788 38.5977 36.7644 38.5607C36.9499 38.5238 37.1169 38.4237 37.237 38.2775C37.357 38.1312 37.4226 37.9479 37.4226 37.7587C37.422 37.5417 37.3358 37.3336 37.1826 37.1798Z" fill="#FCF9F7"/>
<path d="M32.8553 36.9398H16.5515C16.3344 36.9398 16.1261 37.0261 15.9725 37.1797C15.8189 37.3333 15.7327 37.5415 15.7327 37.7587C15.7327 37.9759 15.8189 38.1842 15.9725 38.3377C16.1261 38.4913 16.3344 38.5776 16.5515 38.5776H32.8553C33.0724 38.5776 33.2807 38.4913 33.4343 38.3377C33.5879 38.1842 33.6741 37.9759 33.6741 37.7587C33.6741 37.5415 33.5879 37.3333 33.4343 37.1797C33.2807 37.0261 33.0724 36.9398 32.8553 36.9398Z" fill="#FCF9F7"/>
<path d="M22.1816 7.50492C20.4117 7.50406 18.6823 8.03496 17.2177 9.02876C15.7531 10.0226 14.6208 11.4335 13.9676 13.0785C13.3145 14.7235 13.1706 16.5268 13.5547 18.2546C13.9387 19.9824 14.833 21.555 16.1215 22.7684C16.1517 22.8005 16.1844 22.8299 16.2194 22.8566C17.8467 24.3506 19.9754 25.1796 22.1846 25.1796C24.3937 25.1796 26.5224 24.3506 28.1497 22.8566C28.1847 22.8299 28.2175 22.8004 28.2477 22.7684C29.5362 21.555 30.4304 19.9824 30.8145 18.2546C31.1985 16.5268 31.0546 14.7235 30.4015 13.0785C29.7483 11.4335 28.6161 10.0226 27.1515 9.02876C25.6868 8.03496 23.9575 7.50406 22.1875 7.50492H22.1816ZM22.1816 23.5413C20.5632 23.5428 18.992 22.9962 17.7239 21.9907C18.1543 21.1825 18.7964 20.5066 19.5815 20.0352C20.3665 19.5639 21.265 19.3149 22.1807 19.3149C23.0963 19.3149 23.9948 19.5639 24.7798 20.0352C25.5649 20.5066 26.207 21.1825 26.6374 21.9907C25.3698 22.9958 23.7993 23.5423 22.1816 23.5413ZM20.4577 15.9511V15.3154C20.4522 15.0857 20.4928 14.8571 20.5769 14.6432C20.6611 14.4293 20.7871 14.2344 20.9477 14.07C21.1083 13.9055 21.3001 13.7748 21.5119 13.6856C21.7238 13.5964 21.9513 13.5504 22.1811 13.5504C22.411 13.5504 22.6385 13.5964 22.8503 13.6856C23.0622 13.7748 23.254 13.9055 23.4146 14.07C23.5752 14.2344 23.7012 14.4293 23.7854 14.6432C23.8695 14.8571 23.91 15.0857 23.9046 15.3154V15.9511C23.91 16.1809 23.8695 16.4095 23.7854 16.6234C23.7012 16.8373 23.5752 17.0322 23.4146 17.1966C23.254 17.3611 23.0622 17.4917 22.8503 17.581C22.6385 17.6702 22.411 17.7161 22.1811 17.7161C21.9513 17.7161 21.7238 17.6702 21.5119 17.581C21.3001 17.4917 21.1083 17.3611 20.9477 17.1966C20.7871 17.0322 20.6611 16.8373 20.5769 16.6234C20.4928 16.4095 20.4522 16.1809 20.4577 15.9511ZM27.8373 20.7918C27.0955 19.6077 25.9984 18.6882 24.7029 18.1648C25.2417 17.5533 25.5388 16.7662 25.5384 15.9511V15.3154C25.546 14.8692 25.4647 14.426 25.2992 14.0115C25.1337 13.597 24.8873 13.2197 24.5745 12.9014C24.2616 12.5831 23.8885 12.3304 23.4769 12.1578C23.0653 11.9853 22.6235 11.8964 22.1772 11.8964C21.7309 11.8964 21.2891 11.9853 20.8775 12.1578C20.4659 12.3304 20.0929 12.5831 19.78 12.9014C19.4671 13.2197 19.2207 13.597 19.0553 14.0115C18.8898 14.426 18.8085 14.8692 18.8161 15.3154V15.9511C18.8157 16.7662 19.1128 17.5533 19.6516 18.1648C18.356 18.6882 17.259 19.6077 16.5172 20.7918C15.6809 19.7301 15.1604 18.4545 15.0152 17.1108C14.87 15.7672 15.1058 14.4098 15.6959 13.1939C16.2859 11.9781 17.2063 10.9529 18.3517 10.2356C19.4971 9.51825 20.8213 9.13784 22.1728 9.13784C23.5243 9.13784 24.8485 9.51825 25.9939 10.2356C27.1393 10.9529 28.0597 11.9781 28.6497 13.1939C29.2398 14.4098 29.4757 15.7672 29.3304 17.1108C29.1852 18.4545 28.6647 19.7301 27.8284 20.7918H27.8373Z" fill="#FCF9F7"/>
<path d="M21.6155 3.27544C18.1832 3.33319 14.9138 4.74953 12.5241 7.21396C10.1344 9.67839 8.81935 12.9898 8.86728 16.4223C8.85977 18.4006 9.29428 20.3556 10.1391 22.1444C10.9838 23.9333 12.2176 25.5109 13.7501 26.7619L4.24895 36.5627C4.10925 36.7084 3.94153 36.8244 3.75586 36.9036C3.57019 36.9828 3.37042 37.0236 3.16856 37.0236C2.9667 37.0236 2.76693 36.9828 2.58126 36.9036C2.39559 36.8244 2.22787 36.7084 2.08817 36.5627C1.80088 36.2629 1.64048 35.8638 1.64048 35.4485C1.64048 35.0333 1.80088 34.6342 2.08817 34.3344L6.94845 29.3213C7.10236 29.1607 7.18829 28.9468 7.18829 28.7243C7.18829 28.5018 7.10236 28.2879 6.94845 28.1273C6.87365 28.0491 6.78379 27.9869 6.6843 27.9444C6.58481 27.9019 6.47775 27.88 6.36956 27.88C6.26137 27.88 6.15431 27.9019 6.05482 27.9444C5.95533 27.9869 5.86548 28.0491 5.79068 28.1273L0.927466 33.1413C0.332272 33.7626 0 34.5897 0 35.45C0 36.3104 0.332272 37.1375 0.927466 37.7587C1.21699 38.0605 1.56455 38.3007 1.94926 38.4647C2.33397 38.6288 2.74788 38.7134 3.16611 38.7134C3.58434 38.7134 3.99825 38.6288 4.38296 38.4647C4.76767 38.3007 5.11524 38.0605 5.40476 37.7587L15.1243 27.7335C17.0763 28.9347 19.3235 29.5705 21.6155 29.5701C25.0315 29.4638 28.2721 28.032 30.6509 25.578C33.0297 23.124 34.3599 19.8405 34.3599 16.4228C34.3599 13.005 33.0297 9.72152 30.6509 7.26752C28.2721 4.81353 25.0315 3.38177 21.6155 3.27544ZM21.6155 27.8814C18.576 27.8814 15.6611 26.674 13.5119 24.5248C11.3627 22.3756 10.1553 19.4607 10.1553 16.4213C10.1553 13.3819 11.3627 10.4669 13.5119 8.31776C15.6611 6.16856 18.576 4.96116 21.6155 4.96116C24.6549 4.96116 27.5698 6.16856 29.719 8.31776C31.8682 10.4669 33.0756 13.3819 33.0756 16.4213C33.0756 19.4607 31.8682 22.3756 29.719 24.5248C27.5698 26.674 24.6549 27.8814 21.6155 27.8814Z" fill="#FCF9F7"/>
<path d="M9.74002 25.4523C9.60614 25.3186 9.43006 25.2355 9.24177 25.2171C9.05348 25.1986 8.86463 25.246 8.70738 25.3512C8.55013 25.4564 8.43421 25.6129 8.37936 25.7939C8.32452 25.975 8.33414 26.1695 8.40659 26.3442C8.47904 26.519 8.60983 26.6633 8.7767 26.7524C8.94357 26.8416 9.13618 26.8701 9.32173 26.8332C9.50729 26.7963 9.6743 26.6962 9.79433 26.5499C9.91435 26.4037 9.97997 26.2203 9.98 26.0312C9.97939 25.8141 9.89315 25.6061 9.74002 25.4523Z" fill="#FCF9F7"/>
</g>
<defs>
<clipPath id="clip0_133_315">
<rect width="43" height="43" fill="white"/>
</clipPath>
</defs>
</svg>
