<svg width="43" height="43" fill="none" xmlns="http://www.w3.org/2000/svg"><g clip-path="url(#a)" fill="#FCF9F7"><path d="M40.465 0h-30.07A2.53 2.53 0 0 0 7.86 2.52v2.855a.845.845 0 1 0 1.69 0V2.519a.843.843 0 0 1 .844-.84h30.07a.844.844 0 0 1 .844.84v37.96a.843.843 0 0 1-.844.84h-30.07a.844.844 0 0 1-.845-.84v-2.714a.845.845 0 1 0-1.69 0v2.715A2.53 2.53 0 0 0 10.396 43h30.07A2.53 2.53 0 0 0 43 40.48V2.52A2.53 2.53 0 0 0 40.465 0Z"/><path d="M36.605 32.45H16.952a.819.819 0 0 0 0 1.639h19.653a.818.818 0 1 0 0-1.638Zm.578 4.73a.817.817 0 1 0-1.156 1.156.817.817 0 0 0 1.156-1.156Zm-4.328-.24H16.552a.819.819 0 0 0 0 1.638h16.303a.819.819 0 0 0 0-1.638ZM22.182 7.505a8.833 8.833 0 0 0-5.963 15.352 8.82 8.82 0 0 0 11.93 0 8.833 8.833 0 0 0-5.962-15.352h-.005Zm0 16.036a7.164 7.164 0 0 1-4.458-1.55 5.05 5.05 0 0 1 8.913 0 7.165 7.165 0 0 1-4.455 1.55Zm-1.724-7.59v-.636a1.725 1.725 0 1 1 3.447 0v.636a1.727 1.727 0 0 1-1.724 1.765 1.725 1.725 0 0 1-1.723-1.765Zm7.38 4.84a6.63 6.63 0 0 0-3.135-2.626 3.346 3.346 0 0 0 .835-2.214v-.636a3.362 3.362 0 1 0-6.722 0v.636c0 .815.297 1.602.836 2.214a6.629 6.629 0 0 0-3.135 2.627 7.198 7.198 0 1 1 11.311 0h.01Z"/><path d="M21.616 3.275A12.968 12.968 0 0 0 8.867 16.422a13.281 13.281 0 0 0 4.883 10.34l-9.501 9.8a1.497 1.497 0 0 1-2.16 0 1.61 1.61 0 0 1 0-2.228l4.86-5.013a.863.863 0 0 0 0-1.194.8.8 0 0 0-1.158 0L.927 33.141a3.337 3.337 0 0 0 0 4.618 3.101 3.101 0 0 0 4.478 0l9.72-10.026a12.382 12.382 0 0 0 6.49 1.837 13.154 13.154 0 0 0 0-26.295Zm0 24.606a11.46 11.46 0 1 1 0-22.92 11.46 11.46 0 0 1 0 22.92Z"/><path d="M9.74 25.452a.818.818 0 1 0-1.155 1.157.818.818 0 0 0 1.155-1.157Z"/></g><defs><clipPath id="a"><path fill="#fff" d="M0 0h43v43H0z"/></clipPath></defs></svg>