<svg width="34" height="32" viewBox="0 0 34 32" fill="none" xmlns="http://www.w3.org/2000/svg">
<path d="M9.09215 20.359C9.20543 20.2939 9.29686 20.1967 9.35486 20.0797C9.41287 19.9627 9.43485 19.831 9.41801 19.7015C9.40118 19.572 9.34628 19.4504 9.26028 19.352C9.17427 19.2537 9.06104 19.1831 8.9349 19.1492C8.80876 19.1153 8.67539 19.1196 8.55168 19.1615C8.42797 19.2034 8.31948 19.2811 8.23995 19.3848C8.16042 19.4884 8.11343 19.6132 8.10492 19.7436C8.09641 19.8739 8.12677 20.0039 8.19215 20.117C8.27978 20.268 8.42362 20.3782 8.59225 20.4235C8.76087 20.4689 8.94059 20.4457 9.09215 20.359Z" fill="white"/>
<path d="M6.34004 24.921L9.66604 30.682C9.83855 30.9844 10.0691 31.2496 10.3444 31.4626C10.6198 31.6755 10.9345 31.8319 11.2705 31.9229C11.6065 32.0138 11.9571 32.0375 12.3023 31.9925C12.6474 31.9475 12.9803 31.8347 13.2817 31.6607C13.5832 31.4866 13.8473 31.2547 14.0588 30.9783C14.2704 30.7019 14.4252 30.3864 14.5144 30.0499C14.6037 29.7135 14.6255 29.3627 14.5788 29.0178C14.532 28.6729 14.4176 28.3406 14.242 28.04L12.26 24.604L13.976 23.613C14.1271 23.5254 14.2373 23.3816 14.2826 23.213C14.328 23.0443 14.3048 22.8646 14.218 22.713L13.359 21.221L26.01 18.742C26.348 18.7234 26.6756 18.6184 26.9615 18.4371C27.2474 18.2558 27.4821 18.0043 27.6432 17.7066C27.8042 17.4088 27.8863 17.0748 27.8815 16.7363C27.8768 16.3978 27.7854 16.0662 27.616 15.773L25.416 11.973L26.816 9.84804C26.8836 9.7457 26.9213 9.62658 26.925 9.50402C26.9287 9.38146 26.8982 9.26029 26.837 9.15405L25.516 6.86604C25.4545 6.75988 25.3647 6.67289 25.2567 6.6148C25.1486 6.5567 25.0265 6.52978 24.904 6.53704L22.363 6.68904L19.926 2.46804C19.7555 2.16943 19.5096 1.92083 19.2128 1.7471C18.9161 1.57336 18.5789 1.48058 18.235 1.47804H18.21C17.8774 1.47665 17.5498 1.55979 17.258 1.71966C16.9663 1.87953 16.7199 2.11089 16.542 2.39204L7.92104 13.382L2.31204 16.621C1.29275 17.2019 0.532441 18.1486 0.185187 19.2692C-0.162067 20.3898 -0.0702854 21.6005 0.44193 22.656C0.954145 23.7115 1.84848 24.5327 2.94368 24.9533C4.03888 25.3739 5.25302 25.3624 6.34004 24.921ZM13.1 28.698C13.2755 29.0017 13.3231 29.3626 13.2324 29.7014C13.1418 30.0402 12.9202 30.3291 12.6165 30.5045C12.3129 30.68 11.9519 30.7276 11.6131 30.6369C11.2744 30.5463 10.9855 30.3247 10.81 30.021L7.51004 24.3L9.80004 22.977L13.1 28.698ZM11.6 23.461L10.94 22.317L12.084 21.657L12.744 22.801L11.6 23.461ZM24.584 7.87904L25.497 9.46004L24.683 10.693L23.11 7.96704L24.584 7.87904ZM17.654 3.11504C17.7135 3.01703 17.7976 2.93621 17.8978 2.88055C17.9981 2.82489 18.1111 2.79631 18.2257 2.79762C18.3404 2.79893 18.4527 2.83009 18.5517 2.88803C18.6506 2.94597 18.7328 3.02869 18.79 3.12804L26.472 16.435C26.5293 16.5342 26.5599 16.6466 26.5606 16.7612C26.5613 16.8758 26.5321 16.9885 26.476 17.0884C26.4199 17.1883 26.3388 17.2719 26.2406 17.3309C26.1424 17.3899 26.0306 17.4224 25.916 17.425C25.794 17.4362 25.673 17.4566 25.554 17.486L17.428 3.41004C17.6 3.19104 17.621 3.17104 17.654 3.11504ZM16.549 4.53104L24.184 17.755L12.661 20.015L9.16104 13.946L16.549 4.53104ZM1.76404 22.275C1.54691 21.8995 1.40595 21.4849 1.34921 21.0549C1.29246 20.6249 1.32105 20.1879 1.43334 19.7689C1.54563 19.3499 1.73941 18.9572 2.00361 18.6132C2.2678 18.2692 2.59723 17.9806 2.97304 17.764L8.12104 14.792L11.421 20.512L6.27504 23.484C5.51629 23.9209 4.61523 24.039 3.76954 23.8123C2.92385 23.5857 2.2026 23.0328 1.76404 22.275Z" fill="white"/>
<path d="M7.0001 20.774C6.91247 20.6229 6.76864 20.5127 6.60001 20.4674C6.43138 20.422 6.25167 20.4452 6.10011 20.532L4.9561 21.192C4.80454 21.2787 4.62483 21.3019 4.4562 21.2566C4.28757 21.2112 4.14374 21.101 4.0561 20.95C3.96845 20.7983 3.82412 20.6876 3.65487 20.6423C3.48562 20.597 3.30531 20.6208 3.1536 20.7085C3.0019 20.7961 2.89123 20.9405 2.84594 21.1097C2.80065 21.279 2.82445 21.4593 2.91211 21.611C3.17539 22.0656 3.60824 22.3972 4.11571 22.5331C4.62318 22.6691 5.16384 22.5982 5.6191 22.336L6.7631 21.676C6.91383 21.5875 7.02338 21.4429 7.0678 21.2739C7.11221 21.1049 7.08787 20.9251 7.0001 20.774Z" fill="white"/>
<path d="M33.019 2.89004L29.3389 4.93804C29.1944 5.02751 29.0899 5.16922 29.0472 5.33372C29.0044 5.49822 29.0266 5.67287 29.1093 5.8214C29.1919 5.96993 29.3286 6.08093 29.4909 6.13133C29.6532 6.18173 29.8287 6.16765 29.9809 6.09204L33.661 4.04405C33.814 3.95891 33.9269 3.81647 33.9749 3.64806C34.0229 3.47966 34.0021 3.29907 33.9169 3.14604C33.8318 2.99301 33.6894 2.88007 33.521 2.83206C33.3526 2.78405 33.172 2.80491 33.019 2.89004Z" fill="white"/>
<path d="M32.633 9.73106L30.081 9.04706C29.9972 9.0246 29.9099 9.01886 29.8239 9.03018C29.7379 9.0415 29.6549 9.06964 29.5798 9.11301C29.5047 9.15637 29.4389 9.21411 29.386 9.28293C29.3332 9.35174 29.2945 9.43027 29.272 9.51405C29.2496 9.59784 29.2438 9.68522 29.2552 9.77122C29.2665 9.85722 29.2946 9.94015 29.338 10.0153C29.3813 10.0904 29.4391 10.1562 29.5079 10.2091C29.5767 10.2619 29.6553 10.3006 29.739 10.3231L32.291 11.0071C32.3748 11.0295 32.4622 11.0353 32.5482 11.0239C32.6342 11.0126 32.7171 10.9845 32.7923 10.9411C32.8674 10.8977 32.9332 10.84 32.986 10.7712C33.0388 10.7024 33.0776 10.6238 33.1 10.5401C33.1225 10.4563 33.1282 10.3689 33.1169 10.2829C33.1056 10.1969 33.0775 10.114 33.0341 10.0388C32.9907 9.96372 32.933 9.89787 32.8642 9.84506C32.7954 9.79225 32.7168 9.75352 32.633 9.73106Z" fill="white"/>
<path d="M26.1832 0.490007L25.4991 3.04201C25.4612 3.20869 25.4894 3.38358 25.5776 3.52997C25.6659 3.67636 25.8074 3.78286 25.9726 3.82711C26.1377 3.87137 26.3135 3.84994 26.4632 3.76731C26.6128 3.68469 26.7246 3.54731 26.7751 3.38401L27.4592 0.832007C27.4816 0.748224 27.4873 0.660838 27.476 0.574838C27.4647 0.488839 27.4365 0.405911 27.3932 0.330788C27.3498 0.255666 27.2921 0.18982 27.2233 0.137011C27.1545 0.0842016 27.0759 0.0454631 26.9921 0.023007C26.9084 0.000551002 26.821 -0.00518279 26.735 0.00613303C26.649 0.0174489 26.566 0.0455927 26.4909 0.0889577C26.4158 0.132323 26.3499 0.190059 26.2971 0.258872C26.2443 0.327684 26.2056 0.406224 26.1832 0.490007Z" fill="white"/>
</svg>
