<svg width="33" height="32" viewBox="0 0 33 32" fill="none" xmlns="http://www.w3.org/2000/svg">
<g clip-path="url(#clip0_6_382)">
<path d="M30.4269 12.513C30.7174 12.2383 30.9235 11.8864 31.021 11.4987C31.1184 11.1109 31.1031 10.7034 30.9769 10.324C30.8497 9.94164 30.6176 9.6027 30.3072 9.3458C29.9967 9.08891 29.6203 8.92439 29.2209 8.871L22.0049 7.842C21.9355 7.83226 21.8696 7.8059 21.8127 7.76515C21.7557 7.72441 21.7095 7.67049 21.6779 7.608L18.4509 1.19C18.2665 0.831692 17.987 0.53111 17.643 0.32125C17.299 0.11139 16.9038 0.000366211 16.5009 0.000366211C16.0979 0.000366211 15.7028 0.11139 15.3588 0.32125C15.0148 0.53111 14.7353 0.831692 14.5509 1.19L11.3239 7.609C11.2921 7.67156 11.2457 7.72552 11.1886 7.76626C11.1315 7.80701 11.0654 7.83334 10.9959 7.843L3.77989 8.872C3.38047 8.92539 3.00409 9.08991 2.69362 9.3468C2.38316 9.6037 2.1511 9.94264 2.02389 10.325C1.89767 10.7044 1.88238 11.1119 1.97981 11.4997C2.07724 11.8874 2.28334 12.2393 2.57389 12.514L7.79489 17.514C7.84522 17.5619 7.88296 17.6214 7.90477 17.6873C7.92657 17.7533 7.93177 17.8236 7.91989 17.892L6.68689 24.947C6.61699 25.3413 6.66128 25.7473 6.81454 26.1173C6.9678 26.4872 7.22364 26.8056 7.55189 27.035C7.88235 27.2691 8.27102 27.4075 8.67507 27.4348C9.07913 27.4622 9.4829 27.3774 9.84189 27.19L16.2959 23.859C16.3579 23.8275 16.4264 23.8112 16.4959 23.8112C16.5654 23.8112 16.6339 23.8275 16.6959 23.859L23.1579 27.19C23.5176 27.3763 23.9218 27.4597 24.3258 27.4309C24.7299 27.4021 25.1182 27.2624 25.4479 27.027C25.7761 26.7976 26.032 26.4792 26.1852 26.1093C26.3385 25.7393 26.3828 25.3333 26.3129 24.939L25.0799 17.89C25.068 17.8216 25.0732 17.7513 25.095 17.6853C25.1168 17.6194 25.1546 17.5599 25.2049 17.512L30.4269 12.513ZM23.3659 18.176L24.5989 25.231C24.6138 25.3099 24.6054 25.3915 24.5747 25.4658C24.544 25.54 24.4923 25.6037 24.4259 25.649C24.3603 25.6969 24.2825 25.7254 24.2015 25.7311C24.1205 25.7367 24.0395 25.7194 23.9679 25.681L17.5129 22.35C17.1999 22.1889 16.8529 22.1048 16.5009 22.1048C16.1488 22.1048 15.8019 22.1889 15.4889 22.35L9.03489 25.681C8.96333 25.7195 8.88232 25.7369 8.80126 25.7312C8.7202 25.7256 8.64241 25.6971 8.57689 25.649C8.51052 25.6037 8.4588 25.54 8.42807 25.4658C8.39734 25.3915 8.38894 25.3099 8.40389 25.231L9.63689 18.176C9.69628 17.8339 9.67031 17.4824 9.56128 17.1527C9.45226 16.823 9.26355 16.5253 9.01189 16.286L3.79089 11.286C3.73169 11.2318 3.6897 11.1614 3.67015 11.0835C3.6506 11.0056 3.65433 10.9238 3.68089 10.848C3.70528 10.7709 3.75134 10.7025 3.81359 10.6509C3.87583 10.5993 3.95162 10.5667 4.03189 10.557L11.2419 9.532C11.5889 9.48383 11.9191 9.35246 12.2043 9.14908C12.4895 8.94569 12.7213 8.67634 12.8799 8.364L16.1069 1.945C16.1439 1.87345 16.1998 1.81346 16.2686 1.77158C16.3374 1.7297 16.4164 1.70754 16.4969 1.70754C16.5774 1.70754 16.6564 1.7297 16.7252 1.77158C16.794 1.81346 16.8499 1.87345 16.8869 1.945L20.1139 8.364C20.2724 8.67622 20.504 8.94549 20.7891 9.14886C21.0741 9.35223 21.4041 9.48368 21.7509 9.532L28.9669 10.561C29.0472 10.5707 29.1229 10.6033 29.1852 10.6549C29.2474 10.7065 29.2935 10.7749 29.3179 10.852C29.3445 10.9278 29.3482 11.0096 29.3286 11.0875C29.3091 11.1654 29.2671 11.2358 29.2079 11.29L23.9869 16.29C23.7366 16.5293 23.549 16.8265 23.4407 17.1554C23.3324 17.4843 23.3067 17.8348 23.3659 18.176Z" fill="#2D2E33"/>
<path d="M26.6698 1.219C26.482 1.0827 26.2478 1.02657 26.0187 1.06295C25.7895 1.09933 25.5842 1.22524 25.4478 1.413L24.5188 2.691C24.3865 2.87895 24.3335 3.11141 24.3712 3.33813C24.4089 3.56486 24.5343 3.76765 24.7203 3.90268C24.9063 4.03771 25.138 4.09413 25.3652 4.05976C25.5925 4.02539 25.7971 3.90299 25.9348 3.719L26.8638 2.441C27.0001 2.25321 27.0563 2.01899 27.0199 1.78982C26.9835 1.56066 26.8576 1.35533 26.6698 1.219Z" fill="#2D2E33"/>
<path d="M8.47487 2.68598L7.54587 1.40798C7.47911 1.31313 7.39417 1.2325 7.29597 1.17078C7.19777 1.10905 7.08827 1.06747 6.97385 1.04844C6.85944 1.02942 6.74238 1.03333 6.62949 1.05995C6.5166 1.08657 6.41013 1.13537 6.31627 1.20351C6.22241 1.27166 6.14303 1.35778 6.08275 1.45687C6.02248 1.55597 5.98251 1.66606 5.96516 1.78074C5.94782 1.89543 5.95344 2.01242 5.98172 2.1249C6.00999 2.23739 6.06035 2.34313 6.12987 2.43598L7.05887 3.71398C7.12562 3.80884 7.21058 3.88947 7.30878 3.95119C7.40698 4.01292 7.51646 4.0545 7.63088 4.07353C7.7453 4.09255 7.86236 4.08864 7.97525 4.06202C8.08814 4.0354 8.19461 3.9866 8.28847 3.91846C8.38233 3.85031 8.46171 3.76419 8.52199 3.6651C8.58226 3.566 8.62223 3.45591 8.63958 3.34123C8.65692 3.22654 8.65129 3.10956 8.62301 2.99707C8.59474 2.88458 8.54438 2.77883 8.47487 2.68598Z" fill="#2D2E33"/>
<path d="M3.20991 19.211C3.13822 18.9909 2.98219 18.8081 2.77602 18.7027C2.56984 18.5974 2.33031 18.5781 2.10991 18.649L0.609913 19.137C0.498814 19.171 0.395599 19.2268 0.306289 19.3011C0.21698 19.3754 0.143365 19.4668 0.0897406 19.5698C0.0361157 19.6729 0.00355467 19.7856 -0.00604274 19.9014C-0.0156402 20.0172 -0.00208172 20.1337 0.0338415 20.2442C0.0697646 20.3547 0.127333 20.457 0.203188 20.545C0.279043 20.633 0.371665 20.705 0.47565 20.7568C0.579635 20.8086 0.6929 20.8393 0.808837 20.8468C0.924774 20.8544 1.04106 20.8388 1.15091 20.801L2.65091 20.313C2.87098 20.2407 3.0534 20.0841 3.15818 19.8775C3.26297 19.671 3.28157 19.4313 3.20991 19.211Z" fill="#2D2E33"/>
<path d="M16.501 28.67C16.2689 28.67 16.0464 28.7621 15.8823 28.9262C15.7182 29.0903 15.626 29.3129 15.626 29.545V31.125C15.626 31.357 15.7182 31.5796 15.8823 31.7437C16.0464 31.9078 16.2689 32 16.501 32C16.733 32 16.9556 31.9078 17.1197 31.7437C17.2838 31.5796 17.376 31.357 17.376 31.125V29.545C17.376 29.3129 17.2838 29.0903 17.1197 28.9262C16.9556 28.7621 16.733 28.67 16.501 28.67Z" fill="#2D2E33"/>
<path d="M32.395 19.136L30.895 18.648C30.6756 18.5809 30.4386 18.6026 30.2351 18.7085C30.0315 18.8144 29.8777 18.996 29.8068 19.2142C29.7359 19.4324 29.7534 19.6697 29.8558 19.875C29.9581 20.0804 30.1371 20.2373 30.354 20.312L31.854 20.8C32.0734 20.8672 32.3103 20.8454 32.5139 20.7395C32.7174 20.6336 32.8712 20.452 32.9421 20.2339C33.0131 20.0157 32.9955 19.7783 32.8931 19.573C32.7908 19.3677 32.6119 19.2107 32.395 19.136Z" fill="#2D2E33"/>
</g>
<defs>
<clipPath id="clip0_6_382">
<rect width="33" height="32" fill="white"/>
</clipPath>
</defs>
</svg>
