<svg width="44" height="43" viewBox="0 0 44 43" fill="none" xmlns="http://www.w3.org/2000/svg">
<g clip-path="url(#clip0_133_302)">
<path d="M43.2663 28.191H0.733777C0.538304 28.19 0.351234 28.1113 0.213655 27.9722C0.0760768 27.8331 -0.000760666 27.645 1.98315e-05 27.4492V2.96846C-0.00284397 2.18521 0.304558 1.43281 0.85479 0.876315C1.40502 0.319817 2.15315 0.00466621 2.93505 0L41.066 0C41.8479 0.00466621 42.596 0.319817 43.1462 0.876315C43.6965 1.43281 44.0039 2.18521 44.001 2.96846V27.4492C44.0014 27.5462 43.9827 27.6424 43.946 27.7322C43.9093 27.822 43.8552 27.9036 43.787 27.9725C43.7188 28.0414 43.6377 28.0962 43.5483 28.1337C43.459 28.1712 43.3631 28.1907 43.2663 28.191ZM1.46753 26.7073H42.5325V2.96846C42.5343 2.57667 42.3808 2.2002 42.1056 1.92178C41.8304 1.64337 41.4561 1.48581 41.065 1.48374H2.93505C2.54393 1.48581 2.16964 1.64337 1.89446 1.92178C1.61927 2.2002 1.46571 2.57667 1.46753 2.96846V26.7073Z" fill="#FCF9F7"/>
<path d="M41.066 34.1044H2.93505C2.15315 34.0998 1.40502 33.7846 0.85479 33.2281C0.304558 32.6716 -0.00284397 31.9192 1.98315e-05 31.136V27.4276C-0.000760666 27.2318 0.0760768 27.0437 0.213655 26.9046C0.351234 26.7655 0.538304 26.6868 0.733777 26.6857H43.2663C43.4617 26.6868 43.6488 26.7655 43.7864 26.9046C43.924 27.0437 44.0008 27.2318 44 27.4276V31.136C44.0029 31.919 43.6956 32.6713 43.1456 33.2278C42.5956 33.7842 41.8477 34.0995 41.066 34.1044ZM1.46753 28.1695V31.136C1.46571 31.5278 1.61927 31.9042 1.89446 32.1826C2.16964 32.4611 2.54393 32.6186 2.93505 32.6207H41.066C41.4571 32.6186 41.8314 32.4611 42.1066 32.1826C42.3817 31.9042 42.5353 31.5278 42.5335 31.136V28.1695H1.46753Z" fill="#FCF9F7"/>
<path d="M24.2228 31.1379H19.7782C19.5818 31.1379 19.3934 31.0598 19.2545 30.9206C19.1156 30.7815 19.0376 30.5928 19.0376 30.3961C19.0376 30.1993 19.1156 30.0106 19.2545 29.8715C19.3934 29.7324 19.5818 29.6542 19.7782 29.6542H24.2228C24.4192 29.6542 24.6076 29.7324 24.7465 29.8715C24.8854 30.0106 24.9634 30.1993 24.9634 30.3961C24.9634 30.5928 24.8854 30.7815 24.7465 30.9206C24.6076 31.0598 24.4192 31.1379 24.2228 31.1379Z" fill="#FCF9F7"/>
<path d="M40.3048 28.191H3.69421C3.499 28.1897 3.31228 28.1109 3.17507 27.9718C3.03786 27.8327 2.96137 27.6447 2.96241 27.4492V3.70935C2.96137 3.5138 3.03786 3.32583 3.17507 3.18673C3.31228 3.04763 3.499 2.96877 3.69421 2.96748H40.3048C40.5 2.96877 40.6867 3.04763 40.8239 3.18673C40.9611 3.32583 41.0376 3.5138 41.0366 3.70935V27.4492C41.0376 27.6447 40.9611 27.8327 40.8239 27.9718C40.6867 28.1109 40.5 28.1897 40.3048 28.191ZM4.42993 26.7073H39.573V4.45122H4.42993V26.7073Z" fill="#FCF9F7"/>
<path d="M31.4498 43H12.5492C11.9599 43 11.3948 42.7655 10.9781 42.3481C10.5615 41.9307 10.3274 41.3647 10.3274 40.7744C10.3274 40.1841 10.5615 39.618 10.9781 39.2006C11.3948 38.7833 11.9599 38.5488 12.5492 38.5488H31.4498C32.0391 38.5488 32.6042 38.7833 33.0209 39.2006C33.4376 39.618 33.6716 40.1841 33.6716 40.7744C33.6716 41.3647 33.4376 41.9307 33.0209 42.3481C32.6042 42.7655 32.0391 43 31.4498 43ZM12.5492 40.0325C12.3528 40.0325 12.1644 40.1107 12.0255 40.2498C11.8866 40.3889 11.8086 40.5776 11.8086 40.7744C11.8086 40.9711 11.8866 41.1598 12.0255 41.299C12.1644 41.4381 12.3528 41.5163 12.5492 41.5163H31.4498C31.6462 41.5163 31.8346 41.4381 31.9735 41.299C32.1124 41.1598 32.1904 40.9711 32.1904 40.7744C32.1904 40.5776 32.1124 40.3889 31.9735 40.2498C31.8346 40.1107 31.6462 40.0325 31.4498 40.0325H12.5492Z" fill="#FCF9F7"/>
<path d="M30.1467 40.0325H13.8534C13.657 40.0325 13.4686 39.9544 13.3297 39.8152C13.1908 39.6761 13.1128 39.4874 13.1128 39.2907C13.1128 39.0939 13.1908 38.9052 13.3297 38.7661C13.4686 38.6269 13.657 38.5488 13.8534 38.5488C16.311 38.5488 17.5564 36.8014 17.5564 33.3547C17.5566 33.2573 17.5758 33.1609 17.6132 33.0709C17.6505 32.9809 17.7052 32.8992 17.774 32.8304C17.8429 32.7616 17.9246 32.7071 18.0145 32.6699C18.1044 32.6328 18.2008 32.6137 18.298 32.6138H25.7041C25.9005 32.6138 26.0889 32.692 26.2278 32.8311C26.3666 32.9702 26.4447 33.1589 26.4447 33.3557C26.4447 36.8014 27.6901 38.5498 30.1477 38.5498C30.3441 38.5498 30.5325 38.6279 30.6714 38.7671C30.8103 38.9062 30.8883 39.0949 30.8883 39.2916C30.8883 39.4884 30.8103 39.6771 30.6714 39.8162C30.5325 39.9553 30.3441 40.0335 30.1477 40.0335L30.1467 40.0325ZM17.4606 38.5488H26.5396C25.5295 37.2861 24.9803 35.7156 24.983 34.0976H19.0151C19.0181 35.7154 18.4697 37.2857 17.4606 38.5488Z" fill="#FCF9F7"/>
<path d="M30.493 14.9393L27.5579 13.4693L30.493 11.9993C30.6113 11.9396 30.7108 11.8482 30.7803 11.7352C30.8499 11.6222 30.8867 11.4921 30.8867 11.3593C30.8867 11.2266 30.8499 11.0965 30.7803 10.9835C30.7108 10.8705 30.6113 10.779 30.493 10.7194L22.0616 6.49356C21.9624 6.44396 21.853 6.41813 21.7422 6.41813C21.6313 6.41813 21.5219 6.44396 21.4227 6.49356L12.9894 10.7164C12.8711 10.7761 12.7716 10.8675 12.702 10.9805C12.6325 11.0935 12.5957 11.2236 12.5957 11.3564C12.5957 11.4891 12.6325 11.6192 12.702 11.7322C12.7716 11.8452 12.8711 11.9367 12.9894 11.9963L15.9245 13.4663L12.9894 14.9364C12.8705 14.9958 12.7705 15.0873 12.7007 15.2005C12.6308 15.3137 12.5938 15.4442 12.5938 15.5773C12.5938 15.7104 12.6308 15.8409 12.7007 15.9541C12.7705 16.0673 12.8705 16.1588 12.9894 16.2182L15.9245 17.6882L12.9894 19.1583C12.8711 19.2179 12.7716 19.3094 12.702 19.4224C12.6325 19.5353 12.5957 19.6655 12.5957 19.7982C12.5957 19.9309 12.6325 20.0611 12.702 20.1741C12.7716 20.2871 12.8711 20.3785 12.9894 20.4382L21.4227 24.665C21.5219 24.7146 21.6313 24.7404 21.7422 24.7404C21.853 24.7404 21.9624 24.7146 22.0616 24.665L30.493 20.4421C30.6113 20.3824 30.7108 20.291 30.7803 20.178C30.8499 20.065 30.8867 19.9349 30.8867 19.8021C30.8867 19.6694 30.8499 19.5393 30.7803 19.4263C30.7108 19.3133 30.6113 19.2218 30.493 19.1622L27.5579 17.6922L30.493 16.2221C30.6121 16.1628 30.7123 16.0713 30.7824 15.958C30.8525 15.8447 30.8896 15.714 30.8896 15.5807C30.8896 15.4474 30.8525 15.3168 30.7824 15.2035C30.7123 15.0902 30.6121 14.9987 30.493 14.9393ZM21.7427 7.93418L28.5764 11.3564L21.7427 14.7796L14.9089 11.3564L21.7427 7.93418ZM28.5764 19.8021L21.7427 23.2253L14.9089 19.8021L17.527 18.4909L21.4227 20.4421C21.5219 20.4917 21.6313 20.5175 21.7422 20.5175C21.853 20.5175 21.9624 20.4917 22.0616 20.4421L25.9574 18.4909L28.5764 19.8021ZM21.7427 19.0015L14.9089 15.5793L17.527 14.268L21.4227 16.2182C21.5219 16.2678 21.6313 16.2937 21.7422 16.2937C21.853 16.2937 21.9624 16.2678 22.0616 16.2182L25.9583 14.268L28.5764 15.5793L21.7427 19.0015Z" fill="#FCF9F7"/>
</g>
<defs>
<clipPath id="clip0_133_302">
<rect width="44" height="43" fill="white"/>
</clipPath>
</defs>
</svg>
